<svg height="34" viewBox="0 0 54 34" width="54" xmlns="http://www.w3.org/2000/svg" xmlns:xlink="http://www.w3.org/1999/xlink"><mask id="a" fill="#fff"><path d="m0 .1334966h4.87363425v2.63904762h-4.87363425z" fill="#fff" fill-rule="evenodd"/></mask><mask id="b" fill="#fff"><path d="m.08461642.09675714h2.62314975v4.90324286h-2.62314975z" fill="#fff" fill-rule="evenodd"/></mask><mask id="c" fill="#fff"><path d="m0 .08495238h3.10140361v1.67939394h-3.10140361z" fill="#fff" fill-rule="evenodd"/></mask><mask id="d" fill="#fff"><path d="m.05384682.06157273h1.6692771v3.12024545h-1.6692771z" fill="#fff" fill-rule="evenodd"/></mask><mask id="e" fill="#fff"><path d="m0 .16990476h6.20280723v3.35878788h-6.20280723z" fill="#fff" fill-rule="evenodd"/></mask><mask id="f" fill="#fff"><path d="m.10769363.12314546h3.33855422v6.2404909h-3.33855422z" fill="#fff" fill-rule="evenodd"/></mask><mask id="g" fill="#fff"><path d="m0 .1334966h4.87363425v2.63904762h-4.87363425z" fill="#fff" fill-rule="evenodd"/></mask><mask id="h" fill="#fff"><path d="m.08461642.09675714h2.62314975v4.90324286h-2.62314975z" fill="#fff" fill-rule="evenodd"/></mask><mask id="i" fill="#fff"><path d="m0 .16990476h6.20280723v3.35878788h-6.20280723z" fill="#fff" fill-rule="evenodd"/></mask><mask id="j" fill="#fff"><path d="m.10769363.12314546h3.33855422v6.2404909h-3.33855422z" fill="#fff" fill-rule="evenodd"/></mask><g fill="none" fill-rule="evenodd"><g transform="translate(13)"><path d="m3.49992666 20.7841213c-.86730719-1.3276518-2.47515304-2.1579044-3.49992666-1.6162975 2.91115808 1.9620371 4.0778003 2.500803 3.49992666 1.6162975z" fill="#7ca940" transform="matrix(-1 0 0 -1 3.643492 40.196384)"/><path d="m4.15495576 28c-.76997051-4.0467973-1.15495576-7.3226716-1.15495576-9.8276228 0-1.6386487 1.32919027-3.4160546 1.85975381-5.5017539.18699492-.7350961.18699492-2.95863718 0-6.6706233" stroke="#7ca940" stroke-linecap="square"/><g fill="#f24e49"><path d="m4.96987952 5.00036825c.64595745-.8680282 1.67129364-1.42893968 2.82506836-1.42893968.50535564 0 .9859503.10752768 1.42078784.30151938.96538858.43040529.96538858 1.8239934-.0001448 2.2542514-.43498234.1939917-.915577.30137208-1.42064304.30137208-1.15377472 0-2.1785317-.56032229-2.82506836-1.42820318z"/><path d="m4.97024555 5c-.86279911-.64987235-1.42033161-1.6814227-1.42033161-2.84218999 0-.5084184.10687992-.99192576.299703-1.42939867.42781249-.9712394 1.8131519-.9712394 2.24081798.00014568.19253026.43761859.29941017.92098027.29941017 1.42925299 0 1.16076729-.55694685 2.19173493-1.41959954 2.84218999z"/><path d="m4.88848983 3.42490713c.36340855.93558215-.55416375 1.8587469-1.48407824 1.49326141-.41894835-.16459954-.81170385-.41722466-1.15015378-.75773738s-.58940753-.73552403-.75300994-1.15688782c-.36313428-.93572013.55443802-1.85860894 1.48421537-1.49312344.41881122.16473751.81142959.41722466 1.14974238.75759941.33844992.34051271.58954466.73552403.75328421 1.15688782z"/><path d="m2.10328141.1334966c1.13142857 0 2.13633821.51755102 2.77035284 1.31918367-.63344664.80176871-1.63892427 1.31986395-2.77035284 1.31986395-.49556798 0-.96685456-.09945578-1.39341222-.27836735-.94669105-.39768707-.94654905-1.68503401.00028399-2.08244898.42655766-.17891156.89770224-.27823129 1.39312823-.27823129" mask="url(#a)" transform="translate(0 3.571429)"/><path d="m4.93943331 5.03047417c.13334791.96950531-.1713909 1.9890684-.91303171 2.73530012-.32487922.32683228-.70175491.5691755-1.10390483.72716209-.89262804.35066932-1.7731455-.53540636-1.42444005-1.43326813.15717415-.40456751.39806919-.78357641.72281677-1.11027626.74164081-.7460993 1.75445309-1.05267009 2.71855982-.91891782z"/><path d="m.08461642 2.8839c0-1.13828571.51443325-2.14914286 1.31137202-2.78714286.79680354.63728572 1.31177773 1.64885715 1.31177773 2.78714286 0 .49857143-.09872142.97285714-.27669044 1.40185714-.39515613.95242857-1.67474797.95228572-2.06976887-.00014285-.17796902-.42914286-.27669044-.90328572-.27669044-1.40171429" mask="url(#b)" transform="translate(3.549914 5)"/><path d="m5.00017777 5.03063149c.96353132-.1341594 1.97721366.17243389 2.71881686.91858793.32486275.32685626.56574557.70602542.72278012 1.11062261.34855614.89792765-.53217994 1.78393591-1.42476271 1.43297599-.4019979-.15799818-.77872285-.40035919-1.10345396-.72708301-.74173484-.74628648-1.04632657-1.76512976-.91338031-2.73510352z"/><path d="m5.00033411 4.96952583c-.13335064-.96937301.17126276-1.9892011.91305037-2.73530049.32488586-.32683232.70176925-.56917558 1.10379576-.72716219.89277791-.35066936 1.77331337.53540643 1.42446916 1.43340075-.15704572.40443514-.39794569.78344409-.72269991 1.11014399-.74165597.74609939-1.75462059 1.05267023-2.71861538.91891794z"/></g><path d="m7.09982788 4.99991326c0 1.18345043-.95364973 2.14294388-2.12994836 2.14294388s-2.12994837-.95949345-2.12994837-2.14294388.95364974-2.1427704 2.12994837-2.1427704 2.12994836.95931997 2.12994836 2.1427704" fill="#604722"/><path d="m13.1549558 28c-.7699705-2.207344-1.1549558-3.9941845-1.1549558-5.3605215 0-.8938084 1.3291903-1.8633025 1.8597538-3.0009567.1869949-.4009615.1869949-1.6138021 0-3.6385218" stroke="#7ca940" stroke-linecap="square"/><path d="m6.49992666 18.7841213c-.86730719-1.3276518-2.47515304-2.1579044-3.49992666-1.6162975 2.91115808 1.9620371 4.0778003 2.500803 3.49992666 1.6162975z" fill="#7ca940" transform="matrix(1 0 0 -1 0 36.196384)"/><path d="m15.4999267 23.7841213c-.8673072-1.3276518-2.4751531-2.1579044-3.4999267-1.6162975 2.9111581 1.9620371 4.0778003 2.500803 3.4999267 1.6162975z" fill="#7ca940" transform="matrix(1 0 0 -1 0 46.196384)"/></g><g transform="translate(23.506024 11)"><g fill="#f24e49"><path d="m3.1626506 3.18205252c.41106384-.55238158 1.0635505-.90932525 1.79777078-.90932525.32158995 0 .62742292.0684267.90413771.19187597.61433818.27389428.61433818 1.16072308-.00009214 1.43452362-.27680694.12344926-.58263991.19178223-.90404557.19178223-.73422028 0-1.38633836-.35656873-1.79777078-.90885657z"/><path d="m3.16288353 3.18181818c-.54905398-.41355513-.90384739-1.06999626-.90384739-1.80866635 0-.32353899.0680145-.63122549.19072009-.90961734.27224432-.61806144 1.15382394-.61806144 1.42597508.0000927.12251926.27848456.19053375.58607836.19053375.90952464 0 .73867009-.35442072 1.3947404-.90338153 1.80866635z"/><path d="m3.11085717 2.17948636c.23125998.59537046-.35264967 1.18283893-.94441343.95025726-.26660349-.10474517-.51653882-.26550661-.73191604-.48219652-.21537723-.21668991-.37507752-.46806074-.47918815-.73620134-.23108545-.59545826.3528242-1.18275114.9445007-.95016946.26651622.10483296.51636428.2655066.73165423.48210871.21537723.21668991.37516479.46806075.47936269.73620135z"/><path d="m1.33845181.08495238c.72 0 1.35948795.32935065 1.7629518.83948052-.40310241.51021645-1.0429518.83991342-1.7629518.83991342-.31536145 0-.61527109-.06329004-.88671687-.17714286-.60243976-.25307359-.6023494-1.07229437.00018072-1.3251948.27144579-.11385282.57126506-.17705628.88653615-.17705628" mask="url(#c)" transform="translate(0 2.272727)"/><path d="m3.14327574 3.20121083c.08485777.61695793-.10906693 1.26577081-.58102018 1.74064554-.20674132.20798417-.4465713.36220259-.70248489.46273951-.56803602.2231532-1.12836531-.34071314-.90646185-.91207972.10001991-.25745205.25331676-.49863954.45997431-.70653944.47195324-.47479046 1.11647015-.66988097 1.72999261-.58476589z"/><path d="m.05384682 1.83520909c0-.72436364.32736661-1.36763636.83450946-1.77363636.5070568.40554545.83476764 1.04927272.83476764 1.77363636 0 .31727273-.06282272.61909091-.17607573.89209091-.25146299.60609091-1.06574871.606-1.31712564-.00009091-.11325301-.27309091-.17607573-.57481818-.17607573-.892" mask="url(#d)" transform="translate(2.259036 3.181818)"/><path d="m3.18193131 3.20131095c.61315629-.08537417 1.25822687.10973066 1.73015618.58455596.20673084.20799943.36001991.4492889.45995099.70675984.22180845.5714085-.33865996 1.13523194-.90666718.91189381-.25581685-.1005443-.49555091-.25477403-.70219798-.46268919-.47201308-.47490958-.66584418-1.12326439-.58124201-1.74052042z"/><path d="m3.1820308 3.16242553c-.0848595-.61687374.10898539-1.26585525.58103205-1.74064577.20674555-.2079842.44658043-.36220264.70241548-.46273957.5681314-.22315323 1.12847215.34071318.90648038.91216411-.09993819.25736781-.25323817.49855533-.45989994.70645526-.47196289.47479053-1.11657674.66988106-1.73002797.58476597z"/></g><path d="m4.51807229 3.18176299c0 .75310481-.60686801 1.36369156-1.35542169 1.36369156-.74855367 0-1.35542168-.61058675-1.35542168-1.36369156 0-.75310482.60686801-1.36358117 1.35542168-1.36358117.74855368 0 1.35542169.61047635 1.35542169 1.36358117" fill="#604722"/></g><g transform="translate(0 4)"><path d="m6.00802489 29.2727273c-.76997051-4.0467974-1.15495576-7.3226716-1.15495576-9.8276228 0-1.6386487 1.32919027-3.4160546 1.85975381-5.5017539.18699492-.7350961.18699492-2.9586372 0-6.67062333" stroke="#7ca940" stroke-linecap="square"/><g fill="#f24e49"><path d="m6.3253012 6.36410504c.82212768-1.10476315 2.12710101-1.81865049 3.59554155-1.81865049.64317995 0 1.25484585.1368534 1.80827545.38375193 1.2286763.54778856 1.2286763 2.32144615-.0001843 2.86904723-.5536139.24689854-1.1652798.38356447-1.80809115.38356447-1.46844054 0-2.77267671-.71313746-3.59554155-1.81771314z"/><path d="m6.32576706 6.36363636c-1.09810796-.82711026-1.80769477-2.13999252-1.80769477-3.61733271 0-.64707796.13602898-1.26245097.38144018-1.81923467.54448862-1.23612287 2.30764787-1.23612287 2.85195015.00018541.24503852.55696911.3810675 1.17215671.3810675 1.81904926 0 1.47734019-.70884145 2.78948081-1.80676306 3.61733271z"/><path d="m6.22171433 4.35897271c.46251998 1.19074092-.70529932 2.36567788-1.88882685 1.90051452-.53320699-.20949033-1.03307763-.5310132-1.46383208-.96439303-.43075446-.43337982-.75015504-.93612149-.9583763-1.47240268-.4621709-1.19091652.7056484-2.36550228 1.88900139-1.90033892.53303245.20966592 1.03272856.5310132 1.46330848.96421742.43075445.43337983.75032957.9361215.95872536 1.47240269z"/><path d="m2.67690361.16990476c1.44 0 2.71897591.6587013 3.52590362 1.67896104-.80620482 1.0204329-2.08590362 1.67982684-3.52590362 1.67982684-.63072289 0-1.23054216-.12658009-1.77343373-.35428571-1.20487952-.50614719-1.2046988-2.14458875.00036145-2.65038961.54289156-.22770563 1.14253012-.35411256 1.77307228-.35411256" mask="url(#e)" transform="translate(0 4.545455)"/><path d="m6.28655149 6.40242167c.16971552 1.23391585-.21813388 2.5315416-1.16204036 3.48129106-.41348265.41596837-.89314262.72440517-1.40496979.92547907-1.13607204.4463064-2.25673063-.6814263-1.81292369-1.82415948.20003982-.5149041.50663351-.99727907.91994861-1.41307888.94390649-.94958092 2.2329403-1.33976194 3.45998523-1.16953177z"/><path d="m.10769363 3.67041818c0-1.44872727.65473322-2.73527272 1.66901893-3.54727272 1.0141136.8110909 1.66953529 2.09854545 1.66953529 3.54727272 0 .63454546-.12564544 1.23818182-.35215146 1.78418182-.50292599 1.21218182-2.13149742 1.212-2.63425129-.00018182-.22650603-.54618182-.35215147-1.14963636-.35215147-1.784" mask="url(#f)" transform="translate(4.518072 6.363636)"/><path d="m6.36386262 6.40262189c1.22631259-.17074832 2.51645374.21946132 3.46031236 1.16911192.41346172.41599888.72003982.8985778.91990202 1.41351969.4436169 1.142817-.67732 2.2704639-1.8133344 1.8237876-.51163369-.2010886-.99110181-.509548-1.40439596-.92537836-.94402615-.94981915-1.33168835-2.24652878-1.16248402-3.48104085z"/><path d="m6.36406159 6.32485106c-.16971899-1.23374748.21797079-2.53171049 1.16206411-3.48129154.4134911-.41596841.89316087-.72440528 1.40483097-.92547915 1.13626283-.44630646 2.25694433.68142637 1.81296073 1.82432823-.1998764.51473563-.5064763.99711066-.91979987 1.41291053-.94392578.94958104-2.23315348 1.33976211-3.46005594 1.16953193z"/></g><path d="m9.03614458 6.36352597c0 1.50620964-1.21373603 2.72738312-2.71084338 2.72738312-1.49710734 0-2.71084337-1.22117348-2.71084337-2.72738312s1.21373603-2.72716233 2.71084337-2.72716233c1.49710735 0 2.71084338 1.22095269 2.71084338 2.72716233" fill="#604722"/><path d="m4.88178967 18.6245983c-.71412836-1.208943-2.0380057-1.9649605-2.88178967-1.4717801 2.39700602 1.7866062 3.35760257 2.2771996 2.88178967 1.4717801z" fill="#7ca940" transform="matrix(-1 0 0 -1 7 36)"/></g><g transform="translate(31)"><path d="m3.49992666 20.7841213c-.86730719-1.3276518-2.47515304-2.1579044-3.49992666-1.6162975 2.91115808 1.9620371 4.0778003 2.500803 3.49992666 1.6162975z" fill="#7ca940" transform="matrix(-1 0 0 -1 3.643492 40.196384)"/><path d="m4.15495576 28c-.76997051-4.0467973-1.15495576-7.3226716-1.15495576-9.8276228 0-1.6386487 1.32919027-3.4160546 1.85975381-5.5017539.18699492-.7350961.18699492-2.95863718 0-6.6706233" stroke="#7ca940" stroke-linecap="square"/><g fill="#f24e49"><path d="m4.96987952 5.00036825c.64595745-.8680282 1.67129364-1.42893968 2.82506836-1.42893968.50535564 0 .9859503.10752768 1.42078784.30151938.96538858.43040529.96538858 1.8239934-.0001448 2.2542514-.43498234.1939917-.915577.30137208-1.42064304.30137208-1.15377472 0-2.1785317-.56032229-2.82506836-1.42820318z"/><path d="m4.97024555 5c-.86279911-.64987235-1.42033161-1.6814227-1.42033161-2.84218999 0-.5084184.10687992-.99192576.299703-1.42939867.42781249-.9712394 1.8131519-.9712394 2.24081798.00014568.19253026.43761859.29941017.92098027.29941017 1.42925299 0 1.16076729-.55694685 2.19173493-1.41959954 2.84218999z"/><path d="m4.88848983 3.42490713c.36340855.93558215-.55416375 1.8587469-1.48407824 1.49326141-.41894835-.16459954-.81170385-.41722466-1.15015378-.75773738s-.58940753-.73552403-.75300994-1.15688782c-.36313428-.93572013.55443802-1.85860894 1.48421537-1.49312344.41881122.16473751.81142959.41722466 1.14974238.75759941.33844992.34051271.58954466.73552403.75328421 1.15688782z"/><path d="m2.10328141.1334966c1.13142857 0 2.13633821.51755102 2.77035284 1.31918367-.63344664.80176871-1.63892427 1.31986395-2.77035284 1.31986395-.49556798 0-.96685456-.09945578-1.39341222-.27836735-.94669105-.39768707-.94654905-1.68503401.00028399-2.08244898.42655766-.17891156.89770224-.27823129 1.39312823-.27823129" mask="url(#g)" transform="translate(0 3.571429)"/><path d="m4.93943331 5.03047417c.13334791.96950531-.1713909 1.9890684-.91303171 2.73530012-.32487922.32683228-.70175491.5691755-1.10390483.72716209-.89262804.35066932-1.7731455-.53540636-1.42444005-1.43326813.15717415-.40456751.39806919-.78357641.72281677-1.11027626.74164081-.7460993 1.75445309-1.05267009 2.71855982-.91891782z"/><path d="m.08461642 2.8839c0-1.13828571.51443325-2.14914286 1.31137202-2.78714286.79680354.63728572 1.31177773 1.64885715 1.31177773 2.78714286 0 .49857143-.09872142.97285714-.27669044 1.40185714-.39515613.95242857-1.67474797.95228572-2.06976887-.00014285-.17796902-.42914286-.27669044-.90328572-.27669044-1.40171429" mask="url(#h)" transform="translate(3.549914 5)"/><path d="m5.00017777 5.03063149c.96353132-.1341594 1.97721366.17243389 2.71881686.91858793.32486275.32685626.56574557.70602542.72278012 1.11062261.34855614.89792765-.53217994 1.78393591-1.42476271 1.43297599-.4019979-.15799818-.77872285-.40035919-1.10345396-.72708301-.74173484-.74628648-1.04632657-1.76512976-.91338031-2.73510352z"/><path d="m5.00033411 4.96952583c-.13335064-.96937301.17126276-1.9892011.91305037-2.73530049.32488586-.32683232.70176925-.56917558 1.10379576-.72716219.89277791-.35066936 1.77331337.53540643 1.42446916 1.43340075-.15704572.40443514-.39794569.78344409-.72269991 1.11014399-.74165597.74609939-1.75462059 1.05267023-2.71861538.91891794z"/></g><path d="m7.09982788 4.99991326c0 1.18345043-.95364973 2.14294388-2.12994836 2.14294388s-2.12994837-.95949345-2.12994837-2.14294388.95364974-2.1427704 2.12994837-2.1427704 2.12994836.95931997 2.12994836 2.1427704" fill="#604722"/><path d="m6.49992666 18.7841213c-.86730719-1.3276518-2.47515304-2.1579044-3.49992666-1.6162975 2.91115808 1.9620371 4.0778003 2.500803 3.49992666 1.6162975z" fill="#7ca940" transform="matrix(1 0 0 -1 0 36.196384)"/></g><g transform="translate(41 4)"><path d="m6.00802489 29.2727273c-.76997051-4.0467974-1.15495576-7.3226716-1.15495576-9.8276228 0-1.6386487 1.32919027-3.4160546 1.85975381-5.5017539.18699492-.7350961.18699492-2.9586372 0-6.67062333" stroke="#7ca940" stroke-linecap="square"/><g fill="#f24e49"><path d="m6.3253012 6.36410504c.82212768-1.10476315 2.12710101-1.81865049 3.59554155-1.81865049.64317995 0 1.25484585.1368534 1.80827545.38375193 1.2286763.54778856 1.2286763 2.32144615-.0001843 2.86904723-.5536139.24689854-1.1652798.38356447-1.80809115.38356447-1.46844054 0-2.77267671-.71313746-3.59554155-1.81771314z"/><path d="m6.32576706 6.36363636c-1.09810796-.82711026-1.80769477-2.13999252-1.80769477-3.61733271 0-.64707796.13602898-1.26245097.38144018-1.81923467.54448862-1.23612287 2.30764787-1.23612287 2.85195015.00018541.24503852.55696911.3810675 1.17215671.3810675 1.81904926 0 1.47734019-.70884145 2.78948081-1.80676306 3.61733271z"/><path d="m6.22171433 4.35897271c.46251998 1.19074092-.70529932 2.36567788-1.88882685 1.90051452-.53320699-.20949033-1.03307763-.5310132-1.46383208-.96439303-.43075446-.43337982-.75015504-.93612149-.9583763-1.47240268-.4621709-1.19091652.7056484-2.36550228 1.88900139-1.90033892.53303245.20966592 1.03272856.5310132 1.46330848.96421742.43075445.43337983.75032957.9361215.95872536 1.47240269z"/><path d="m2.67690361.16990476c1.44 0 2.71897591.6587013 3.52590362 1.67896104-.80620482 1.0204329-2.08590362 1.67982684-3.52590362 1.67982684-.63072289 0-1.23054216-.12658009-1.77343373-.35428571-1.20487952-.50614719-1.2046988-2.14458875.00036145-2.65038961.54289156-.22770563 1.14253012-.35411256 1.77307228-.35411256" mask="url(#i)" transform="translate(0 4.545455)"/><path d="m6.28655149 6.40242167c.16971552 1.23391585-.21813388 2.5315416-1.16204036 3.48129106-.41348265.41596837-.89314262.72440517-1.40496979.92547907-1.13607204.4463064-2.25673063-.6814263-1.81292369-1.82415948.20003982-.5149041.50663351-.99727907.91994861-1.41307888.94390649-.94958092 2.2329403-1.33976194 3.45998523-1.16953177z"/><path d="m.10769363 3.67041818c0-1.44872727.65473322-2.73527272 1.66901893-3.54727272 1.0141136.8110909 1.66953529 2.09854545 1.66953529 3.54727272 0 .63454546-.12564544 1.23818182-.35215146 1.78418182-.50292599 1.21218182-2.13149742 1.212-2.63425129-.00018182-.22650603-.54618182-.35215147-1.14963636-.35215147-1.784" mask="url(#j)" transform="translate(4.518072 6.363636)"/><path d="m6.36386262 6.40262189c1.22631259-.17074832 2.51645374.21946132 3.46031236 1.16911192.41346172.41599888.72003982.8985778.91990202 1.41351969.4436169 1.142817-.67732 2.2704639-1.8133344 1.8237876-.51163369-.2010886-.99110181-.509548-1.40439596-.92537836-.94402615-.94981915-1.33168835-2.24652878-1.16248402-3.48104085z"/><path d="m6.36406159 6.32485106c-.16971899-1.23374748.21797079-2.53171049 1.16206411-3.48129154.4134911-.41596841.89316087-.72440528 1.40483097-.92547915 1.13626283-.44630646 2.25694433.68142637 1.81296073 1.82432823-.1998764.51473563-.5064763.99711066-.91979987 1.41291053-.94392578.94958104-2.23315348 1.33976211-3.46005594 1.16953193z"/></g><path d="m9.03614458 6.36352597c0 1.50620964-1.21373603 2.72738312-2.71084338 2.72738312-1.49710734 0-2.71084337-1.22117348-2.71084337-2.72738312s1.21373603-2.72716233 2.71084337-2.72716233c1.49710735 0 2.71084338 1.22095269 2.71084338 2.72716233" fill="#604722"/><path d="m4.88178967 18.6245983c-.71412836-1.208943-2.0380057-1.9649605-2.88178967-1.4717801 2.39700602 1.7866062 3.35760257 2.2771996 2.88178967 1.4717801z" fill="#7ca940" transform="matrix(-1 0 0 -1 7 36)"/></g></g></svg>