<?xml version="1.0" encoding="UTF-8"?>
<svg width="40px" height="46px" viewBox="0 0 40 46" version="1.1" xmlns="http://www.w3.org/2000/svg" xmlns:xlink="http://www.w3.org/1999/xlink">
    <!-- Generator: Sketch 55.1 (78136) - https://sketchapp.com -->
    <title>Bucket</title>
    <desc>Created with Sketch.</desc>
    <defs>
        <path d="M0.453,10.133 C0.453,15.359 7.577,19.595 16.365,19.595 L16.365,19.595 L16.365,0.67 C7.577,0.67 0.453,4.905 0.453,10.133 L0.453,10.133 Z" id="path-1"></path>
        <path d="M0.365,19.595 C9.153,19.595 16.276,15.358 16.276,10.133 L16.276,10.133 C16.276,4.905 9.153,0.67 0.365,0.67 L0.365,0.67 L0.365,19.595 Z" id="path-3"></path>
        <path d="M0.044,0.579 L6.559,31.988 C6.802,33.16 7.835,34 9.03,34 L9.03,34 L18.364,34 L18.364,0.579 L0.044,0.579 Z" id="path-5"></path>
        <path d="M0.365,0.579 L0.365,34 L10.592,34 C11.814,34 12.862,33.124 13.077,31.92 L13.077,31.92 L18.684,0.579 L0.365,0.579 Z" id="path-7"></path>
        <path d="M2.509,0.133 C1.481,0.133 0.647,0.967 0.647,1.995 L0.647,1.995 L0.647,5.353 C0.647,6.382 1.481,7.216 2.509,7.216 L2.509,7.216 L20.364,7.216 L20.364,0.133 L2.509,0.133 Z" id="path-9"></path>
        <path d="M0.365,0.133 L0.365,7.216 L18.22,7.216 C19.248,7.216 20.082,6.382 20.082,5.353 L20.082,5.353 L20.082,1.995 C20.082,0.967 19.248,0.133 18.22,0.133 L18.22,0.133 L0.365,0.133 Z" id="path-11"></path>
    </defs>
    <g id="All-of-it" stroke="none" stroke-width="1" fill="none" fill-rule="evenodd">
        <g id="Progress/Intro" transform="translate(-150.000000, -203.000000)">
            <g id="Group-171" transform="translate(18.000000, 83.000000)">
                <g id="Bucket" transform="translate(132.000000, 120.000000)">
                    <g id="Group-121" transform="translate(4.000000, 0.000000)">
                        <mask id="mask-2" fill="white">
                            <use xlink:href="#path-1"></use>
                        </mask>
                        <g id="Clip-120"></g>
                        <polygon id="Fill-119" fill="#4F302B" mask="url(#mask-2)" points="-4.547 24.595 21.365 24.595 21.365 -4.33 -4.547 -4.33"></polygon>
                    </g>
                    <g id="Group-124" transform="translate(19.000000, 0.000000)">
                        <mask id="mask-4" fill="white">
                            <use xlink:href="#path-3"></use>
                        </mask>
                        <g id="Clip-123"></g>
                        <polygon id="Fill-122" fill="#65413C" mask="url(#mask-4)" points="-4.635 24.595 21.276 24.595 21.276 -4.33 -4.635 -4.33"></polygon>
                    </g>
                    <g id="Group-127" transform="translate(2.000000, 12.000000)">
                        <mask id="mask-6" fill="white">
                            <use xlink:href="#path-5"></use>
                        </mask>
                        <g id="Clip-126"></g>
                        <polygon id="Fill-125" fill="#A3A2A3" mask="url(#mask-6)" points="-4.955 39 23.364 39 23.364 -4.422 -4.955 -4.422"></polygon>
                    </g>
                    <g id="Group-130" transform="translate(19.000000, 12.000000)">
                        <mask id="mask-8" fill="white">
                            <use xlink:href="#path-7"></use>
                        </mask>
                        <g id="Clip-129"></g>
                        <polygon id="Fill-128" fill="#B9B9B9" mask="url(#mask-8)" points="-4.635 39 23.684 39 23.684 -4.422 -4.635 -4.422"></polygon>
                    </g>
                    <g id="Group-133" transform="translate(0.000000, 10.000000)">
                        <mask id="mask-10" fill="white">
                            <use xlink:href="#path-9"></use>
                        </mask>
                        <g id="Clip-132"></g>
                        <polygon id="Fill-131" fill="#565656" mask="url(#mask-10)" points="-4.353 12.216 25.364 12.216 25.364 -4.867 -4.353 -4.867"></polygon>
                    </g>
                    <g id="Group-136" transform="translate(19.000000, 10.000000)">
                        <mask id="mask-12" fill="white">
                            <use xlink:href="#path-11"></use>
                        </mask>
                        <g id="Clip-135"></g>
                        <polygon id="Fill-134" fill="#6A6B6B" mask="url(#mask-12)" points="-4.635 12.216 25.082 12.216 25.082 -4.867 -4.635 -4.867"></polygon>
                    </g>
                </g>
            </g>
        </g>
    </g>
</svg>