<?xml version="1.0" encoding="UTF-8"?>
<svg width="160px" height="74px" viewBox="0 0 160 74" version="1.1" xmlns="http://www.w3.org/2000/svg" xmlns:xlink="http://www.w3.org/1999/xlink">
    <!-- Generator: Sketch 55.1 (78136) - https://sketchapp.com -->
    <title>Fence</title>
    <desc>Created with Sketch.</desc>
    <defs>
        <polygon id="path-1" points="0.9037 0.7311 15.5997 0.7311 15.5997 74 0.9037 74"></polygon>
        <polygon id="path-3" points="0.4755 0.7311 15.1715 0.7311 15.1715 74 0.4755 74"></polygon>
        <polygon id="path-5" points="0.0468 0.7311 14.7428 0.7311 14.7428 74 0.0468 74"></polygon>
        <polygon id="path-7" points="0.6185 0.7311 15.3145 0.7311 15.3145 74 0.6185 74"></polygon>
        <polygon id="path-9" points="0.1903 0.7311 14.8863 0.7311 14.8863 74 0.1903 74"></polygon>
        <polygon id="path-11" points="0.7621 0.7311 15.4581 0.7311 15.4581 74 0.7621 74"></polygon>
    </defs>
    <g id="All-of-it" stroke="none" stroke-width="1" fill="none" fill-rule="evenodd" opacity="0.523414249">
        <g id="Progress/Module2" transform="translate(-100.000000, -175.000000)">
            <g id="Fence" transform="translate(100.000000, 174.000000)">
                <polygon id="Fill-1" fill="#A46B56" points="0.174 29.7576 159.204 29.7576 159.204 20.0316 0.174 20.0316"></polygon>
                <polygon id="Fill-2" fill="#A46B56" points="0 59.2176 159.03 59.2176 159.03 49.4906 0 49.4906"></polygon>
                <polygon id="Fill-3" fill="#C3916F" points="8.3322 10.1985 8.3322 74.2685 23.0282 74.2685 23.0282 10.1985 15.6802 1.0005"></polygon>
                <g id="Group-50" transform="translate(13.000000, 0.268600)">
                    <path d="M5.1646,24.15 C5.1646,25.522 4.0526,26.634 2.6796,26.634 C1.3076,26.634 0.1956,25.522 0.1956,24.15 C0.1956,22.777 1.3076,21.665 2.6796,21.665 C4.0526,21.665 5.1646,22.777 5.1646,24.15" id="Fill-4" fill="#725038"></path>
                    <path d="M5.1646,54.0856 C5.1646,55.4576 4.0526,56.5696 2.6796,56.5696 C1.3076,56.5696 0.1956,55.4576 0.1956,54.0856 C0.1956,52.7136 1.3076,51.6006 2.6796,51.6006 C4.0526,51.6006 5.1646,52.7136 5.1646,54.0856" id="Fill-6" fill="#725038"></path>
                    <g id="Group-10" transform="translate(16.000000, 0.000000)">
                        <mask id="mask-2" fill="white">
                            <use xlink:href="#path-1"></use>
                        </mask>
                        <g id="Clip-9"></g>
                        <polygon id="Fill-8" fill="#C3916F" mask="url(#mask-2)" points="15.5997 74.0001 0.9037 74.0001 0.9037 9.9301 8.2517 0.7311 15.5997 9.9301"></polygon>
                    </g>
                    <path d="M26.7364,24.15 C26.7364,25.522 25.6234,26.634 24.2514,26.634 C22.8794,26.634 21.7674,25.522 21.7674,24.15 C21.7674,22.777 22.8794,21.665 24.2514,21.665 C25.6234,21.665 26.7364,22.777 26.7364,24.15" id="Fill-11" fill="#725038"></path>
                    <path d="M26.7364,54.0856 C26.7364,55.4576 25.6234,56.5696 24.2514,56.5696 C22.8794,56.5696 21.7674,55.4576 21.7674,54.0856 C21.7674,52.7136 22.8794,51.6006 24.2514,51.6006 C25.6234,51.6006 26.7364,52.7136 26.7364,54.0856" id="Fill-13" fill="#725038"></path>
                    <g id="Group-17" transform="translate(38.000000, 0.000000)">
                        <mask id="mask-4" fill="white">
                            <use xlink:href="#path-3"></use>
                        </mask>
                        <g id="Clip-16"></g>
                        <polygon id="Fill-15" fill="#C3916F" mask="url(#mask-4)" points="15.1715 74.0001 0.4755 74.0001 0.4755 9.9301 7.8235 0.7311 15.1715 9.9301"></polygon>
                    </g>
                    <path d="M48.3077,24.15 C48.3077,25.522 47.1957,26.634 45.8237,26.634 C44.4517,26.634 43.3387,25.522 43.3387,24.15 C43.3387,22.777 44.4517,21.665 45.8237,21.665 C47.1957,21.665 48.3077,22.777 48.3077,24.15" id="Fill-18" fill="#725038"></path>
                    <path d="M48.3077,54.0856 C48.3077,55.4576 47.1957,56.5696 45.8237,56.5696 C44.4517,56.5696 43.3387,55.4576 43.3387,54.0856 C43.3387,52.7136 44.4517,51.6006 45.8237,51.6006 C47.1957,51.6006 48.3077,52.7136 48.3077,54.0856" id="Fill-20" fill="#725038"></path>
                    <g id="Group-24" transform="translate(60.000000, 0.000000)">
                        <mask id="mask-6" fill="white">
                            <use xlink:href="#path-5"></use>
                        </mask>
                        <g id="Clip-23"></g>
                        <polygon id="Fill-22" fill="#C3916F" mask="url(#mask-6)" points="14.7428 74.0001 0.0468 74.0001 0.0468 9.9301 7.3948 0.7311 14.7428 9.9301"></polygon>
                    </g>
                    <path d="M69.8795,24.15 C69.8795,25.522 68.7675,26.634 67.3955,26.634 C66.0225,26.634 64.9105,25.522 64.9105,24.15 C64.9105,22.777 66.0225,21.665 67.3955,21.665 C68.7675,21.665 69.8795,22.777 69.8795,24.15" id="Fill-25" fill="#725038"></path>
                    <path d="M69.8795,54.0856 C69.8795,55.4576 68.7675,56.5696 67.3955,56.5696 C66.0225,56.5696 64.9105,55.4576 64.9105,54.0856 C64.9105,52.7136 66.0225,51.6006 67.3955,51.6006 C68.7675,51.6006 69.8795,52.7136 69.8795,54.0856" id="Fill-27" fill="#725038"></path>
                    <g id="Group-31" transform="translate(81.000000, 0.000000)">
                        <mask id="mask-8" fill="white">
                            <use xlink:href="#path-7"></use>
                        </mask>
                        <g id="Clip-30"></g>
                        <polygon id="Fill-29" fill="#C3916F" mask="url(#mask-8)" points="15.3145 74.0001 0.6185 74.0001 0.6185 9.9301 7.9665 0.7311 15.3145 9.9301"></polygon>
                    </g>
                    <path d="M91.4513,24.15 C91.4513,25.522 90.3393,26.634 88.9663,26.634 C87.5943,26.634 86.4823,25.522 86.4823,24.15 C86.4823,22.777 87.5943,21.665 88.9663,21.665 C90.3393,21.665 91.4513,22.777 91.4513,24.15" id="Fill-32" fill="#725038"></path>
                    <path d="M91.4513,54.0856 C91.4513,55.4576 90.3393,56.5696 88.9663,56.5696 C87.5943,56.5696 86.4823,55.4576 86.4823,54.0856 C86.4823,52.7136 87.5943,51.6006 88.9663,51.6006 C90.3393,51.6006 91.4513,52.7136 91.4513,54.0856" id="Fill-34" fill="#725038"></path>
                    <g id="Group-38" transform="translate(103.000000, 0.000000)">
                        <mask id="mask-10" fill="white">
                            <use xlink:href="#path-9"></use>
                        </mask>
                        <g id="Clip-37"></g>
                        <polygon id="Fill-36" fill="#C3916F" mask="url(#mask-10)" points="14.8863 74.0001 0.1903 74.0001 0.1903 9.9301 7.5383 0.7311 14.8863 9.9301"></polygon>
                    </g>
                    <path d="M113.0226,24.15 C113.0226,25.522 111.9106,26.634 110.5386,26.634 C109.1666,26.634 108.0536,25.522 108.0536,24.15 C108.0536,22.777 109.1666,21.665 110.5386,21.665 C111.9106,21.665 113.0226,22.777 113.0226,24.15" id="Fill-39" fill="#725038"></path>
                    <path d="M113.0226,54.0856 C113.0226,55.4576 111.9106,56.5696 110.5386,56.5696 C109.1666,56.5696 108.0536,55.4576 108.0536,54.0856 C108.0536,52.7136 109.1666,51.6006 110.5386,51.6006 C111.9106,51.6006 113.0226,52.7136 113.0226,54.0856" id="Fill-41" fill="#725038"></path>
                    <g id="Group-45" transform="translate(124.000000, 0.000000)">
                        <mask id="mask-12" fill="white">
                            <use xlink:href="#path-11"></use>
                        </mask>
                        <g id="Clip-44"></g>
                        <polygon id="Fill-43" fill="#C3916F" mask="url(#mask-12)" points="15.4581 74.0001 0.7621 74.0001 0.7621 9.9301 8.1101 0.7311 15.4581 9.9301"></polygon>
                    </g>
                    <path d="M134.5943,24.15 C134.5943,25.522 133.4823,26.634 132.1103,26.634 C130.7383,26.634 129.6253,25.522 129.6253,24.15 C129.6253,22.777 130.7383,21.665 132.1103,21.665 C133.4823,21.665 134.5943,22.777 134.5943,24.15" id="Fill-46" fill="#725038"></path>
                    <path d="M134.5943,54.0856 C134.5943,55.4576 133.4823,56.5696 132.1103,56.5696 C130.7383,56.5696 129.6253,55.4576 129.6253,54.0856 C129.6253,52.7136 130.7383,51.6006 132.1103,51.6006 C133.4823,51.6006 134.5943,52.7136 134.5943,54.0856" id="Fill-48" fill="#725038"></path>
                </g>
            </g>
        </g>
    </g>
</svg>