<?xml version="1.0" encoding="UTF-8"?>
<svg width="44px" height="111px" viewBox="0 0 44 111" version="1.1" xmlns="http://www.w3.org/2000/svg" xmlns:xlink="http://www.w3.org/1999/xlink">
    <!-- Generator: Sketch 55.1 (78136) - https://sketchapp.com -->
    <title>Shovel</title>
    <desc>Created with Sketch.</desc>
    <defs>
        <path d="M15.484,6.611 L6.831,4.613 L0.73,31.037 L0.885,31.073 C0.932,35.133 5.731,39.352 12.373,40.886 L12.373,40.886 L21.469,1.484 L16.911,0.431 L15.484,6.611 Z" id="path-1"></path>
        <path d="M0.372,39.887 C7.014,41.42 13.177,39.729 14.999,36.101 L14.999,36.101 L15.154,36.138 L21.255,9.714 L12.601,7.716 L14.028,1.535 L9.468,0.483 L0.372,39.887 Z" id="path-3"></path>
        <polygon id="path-5" points="0.441 58.485 3.119 59.103 16.438 1.412 13.759 0.794"></polygon>
        <polygon id="path-7" points="0.635 57.83 3.468 58.483 16.787 0.792 13.955 0.139"></polygon>
        <path d="M2.527,3.786 L6.309,4.659 C5.372,6.055 3.653,6.771 1.93,6.373 L1.93,6.373 L0.243,13.681 L2.868,14.287 C3.339,14.396 3.806,14.103 3.916,13.633 L3.916,13.633 L4.945,9.175 C7.109,8.523 8.907,6.863 9.665,4.557 L9.665,4.557 C9.833,4.036 9.774,3.463 9.504,2.985 L9.504,2.985 C9.228,2.496 8.757,2.145 8.211,2.019 L8.211,2.019 L3.202,0.862 L2.527,3.786 Z" id="path-9"></path>
        <path d="M1.634,1.009 C1.18,1.322 0.876,1.812 0.802,2.354 L0.802,2.354 C0.471,4.756 1.36,7.036 3.019,8.571 L3.019,8.571 L1.991,13.029 C1.881,13.499 2.176,13.966 2.645,14.075 L2.645,14.075 L5.27,14.682 L6.957,7.373 C5.233,6.975 4.004,5.579 3.774,3.913 L3.774,3.913 L7.555,4.786 L8.23,1.862 L3.221,0.706 C3.073,0.672 2.923,0.655 2.773,0.655 L2.773,0.655 C2.369,0.655 1.97,0.777 1.634,1.009 L1.634,1.009 Z" id="path-11"></path>
    </defs>
    <g id="All-of-it" stroke="none" stroke-width="1" fill="none" fill-rule="evenodd">
        <g id="Progress/Intro" transform="translate(-282.000000, -139.000000)">
            <g id="Group-171" transform="translate(18.000000, 83.000000)">
                <g id="Shovel" transform="translate(264.000000, 56.000000)">
                    <g id="Group-139" transform="translate(0.000000, 69.000000)">
                        <mask id="mask-2" fill="white">
                            <use xlink:href="#path-1"></use>
                        </mask>
                        <g id="Clip-138"></g>
                        <polygon id="Fill-137" fill="#A3A2A3" mask="url(#mask-2)" points="4.5104 -7.5634 27.4654 -2.2634 16.1194 46.8816 -6.8356 41.5826"></polygon>
                    </g>
                    <g id="Group-142" transform="translate(11.000000, 70.000000)">
                        <mask id="mask-4" fill="white">
                            <use xlink:href="#path-3"></use>
                        </mask>
                        <g id="Clip-141"></g>
                        <polygon id="Fill-140" fill="#B9B9B9" mask="url(#mask-4)" points="5.7214 -5.5136 28.6774 -0.2136 17.3304 48.9334 -5.6256 43.6334"></polygon>
                    </g>
                    <g id="Group-145" transform="translate(21.000000, 12.000000)">
                        <mask id="mask-6" fill="white">
                            <use xlink:href="#path-5"></use>
                        </mask>
                        <g id="Clip-144"></g>
                        <polygon id="Fill-143" fill="#AC3F25" mask="url(#mask-6)" points="10.0124 -5.2031 22.4344 -2.3351 6.8664 65.0989 -5.5556 62.2319"></polygon>
                    </g>
                    <g id="Group-148" transform="translate(18.000000, 12.000000)">
                        <mask id="mask-8" fill="white">
                            <use xlink:href="#path-7"></use>
                        </mask>
                        <g id="Clip-147"></g>
                        <polygon id="Fill-146" fill="#903A1F" mask="url(#mask-8)" points="10.2077 -5.8583 22.7837 -2.9553 7.2157 64.4797 -5.3603 61.5767"></polygon>
                    </g>
                    <g id="Group-151" transform="translate(34.000000, 1.000000)">
                        <mask id="mask-10" fill="white">
                            <use xlink:href="#path-9"></use>
                        </mask>
                        <g id="Clip-150"></g>
                        <polygon id="Fill-149" fill="#EF4E48" mask="url(#mask-10)" points="-0.5452 -5.1347 16.1508 -1.2807 10.9418 21.2823 -5.7542 17.4273"></polygon>
                    </g>
                    <g id="Group-154" transform="translate(29.000000, 0.000000)">
                        <mask id="mask-12" fill="white">
                            <use xlink:href="#path-11"></use>
                        </mask>
                        <g id="Clip-153"></g>
                        <polygon id="Fill-152" fill="#D64140" mask="url(#mask-12)" points="-2.4691 -5.7392 14.2259 -1.8852 9.0169 20.6778 -7.6781 16.8228"></polygon>
                    </g>
                </g>
            </g>
        </g>
    </g>
</svg>