<svg xmlns="http://www.w3.org/2000/svg" viewBox="0 0 83.88 100.36"><defs><style>.cls-1{fill:#8dc63f;}.cls-2{fill:#72421a;}.cls-3{fill:#7daa40;}</style></defs><title>Sprout</title><g id="Layer_2" data-name="Layer 2"><g id="Mini_Plant" data-name="Mini Plant"><g id="Sprout"><path class="cls-1" d="M32.42,27.42c5.95,24.59,9.32,41.06,6.19,62h5.61C46.28,61,42.94,45.91,32.42,27.42Z"/><path class="cls-2" d="M41.94,77.23C18.78,77.23,0,87.59,0,100.36H83.88C83.88,87.59,65.11,77.23,41.94,77.23Z"/><path class="cls-3" d="M15.37,19.78c4.31,7.35,11.94,10.87,17,7.88L16.79,1.07C11.69,4.06,11.05,12.44,15.37,19.78Z"/><path class="cls-1" d="M16.79,1.07,32.41,27.66c5.1-3,5.73-11.38,1.42-18.72S21.88-1.93,16.79,1.07Z"/><path class="cls-3" d="M49.25,44c-5.11,4.64-6.63,11.28-3.41,14.82L64.34,42C61.12,38.49,54.36,39.37,49.25,44Z"/><path class="cls-1" d="M64.34,42,45.84,58.84c3.22,3.55,10,2.66,15.08-2S67.56,45.58,64.34,42Z"/></g></g></g></svg>