<svg xmlns="http://www.w3.org/2000/svg" viewBox="0 0 242.14 364.58"><defs><style>.cls-1{fill:#8dc63f;}.cls-2{fill:#87b540;}.cls-3{fill:#603913;}.cls-4{fill:#e58628;}.cls-5{fill:#f69320;}.cls-6{fill:#39b54a;}.cls-7{fill:#5aba52;}</style></defs><title>Round mangosteen tree (2)</title><g id="Layer_2" data-name="Layer 2"><g id="Mangosteen_tree" data-name="Mangosteen tree"><g id="Round_mangosteen_tree" data-name="Round mangosteen tree"><g id="Tree_bush" data-name="Tree bush"><path class="cls-1" d="M242.14,121.07A121.07,121.07,0,0,0,70,11.28c-69.75,102.91-33,193.63,48.39,230.8.88,0,1.76.06,2.64.06A121.06,121.06,0,0,0,242.14,121.07Z"/><path class="cls-2" d="M70,11.28a121.05,121.05,0,0,0,48.39,230.8C37.05,204.91.29,114.19,70,11.28Z"/></g><path class="cls-3" d="M132,364.58c-.14-51.62-2.63-98.37-4.32-151.55-.73-32.56.89-68.59-7.28-93.62-8.89,22.87-7.66,63.54-8.83,95.72-1.37,65.81-2.77,99.4-2.77,149.45Z"/><path class="cls-3" d="M127.39,190.09c21-16.58,35.81-26.71,49.39-37.22-9,24.38-30.63,42.2-49.14,58.31C127.64,211.61,127.39,190.09,127.39,190.09Z"/><path class="cls-3" d="M113.52,190.54c-22.37-16.24-42.69-28.53-55-42.63C70.31,174.23,94.1,197,114,213,114,213.52,113.52,190.54,113.52,190.54Z"/><g id="Mangosteen"><g id="Mangosteen_body" data-name="Mangosteen body"><path class="cls-4" d="M187.89,119.41a13.76,13.76,0,1,0,11.35,25C188.64,141.49,182.37,133.54,187.89,119.41Z"/><path class="cls-5" d="M206.64,132.24a13.75,13.75,0,0,0-18.75-12.83c-5.52,14.13.75,22.08,11.35,25A13.76,13.76,0,0,0,206.64,132.24Z"/></g><path class="cls-6" d="M192,117.07a6.31,6.31,0,0,0-4.18,0,6.44,6.44,0,0,0-4.17,4.91,6.44,6.44,0,0,0,3,1.42A11.32,11.32,0,0,1,192,117.07Z"/><path class="cls-7" d="M200.59,118.09a6.44,6.44,0,0,0-6.35.18l-.06,0-.05,0a6.48,6.48,0,0,0-2.14-1.2,11.32,11.32,0,0,0-5.33,6.36,6.34,6.34,0,0,0,3-.14,4.26,4.26,0,0,0,1.24,2,4.08,4.08,0,0,0,5.65-.19,4.67,4.67,0,0,0,.89-1.4.54.54,0,0,0,.12.09,6.43,6.43,0,0,0,6.44-.24A6.42,6.42,0,0,0,200.59,118.09Z"/></g><g id="Mangosteen-2" data-name="Mangosteen"><g id="Mangosteen_body-2" data-name="Mangosteen body"><path class="cls-4" d="M52.56,97a13.77,13.77,0,1,0,11.36,25C53.31,119,47,111.09,52.56,97Z"/><path class="cls-5" d="M71.32,109.79A13.76,13.76,0,0,0,52.56,97C47,111.09,53.31,119,63.92,122A13.78,13.78,0,0,0,71.32,109.79Z"/></g><path class="cls-6" d="M56.66,94.61a6.42,6.42,0,0,0-8.35,5,6.47,6.47,0,0,0,3,1.41A11.46,11.46,0,0,1,56.66,94.61Z"/><path class="cls-7" d="M65.26,95.63a6.44,6.44,0,0,0-6.34.19s0,0-.07,0,0,0-.05,0a6.58,6.58,0,0,0-2.14-1.21A11.46,11.46,0,0,0,51.33,101a6.33,6.33,0,0,0,3-.13,4.26,4.26,0,0,0,1.24,2,4.1,4.1,0,0,0,5.66-.19,4.45,4.45,0,0,0,.88-1.4s.08.07.12.09a6.45,6.45,0,0,0,6.45-.24A6.48,6.48,0,0,0,65.26,95.63Z"/></g><g id="Mangosteen-3" data-name="Mangosteen"><g id="Mangosteen_body-3" data-name="Mangosteen body"><path class="cls-4" d="M132.81,50.41a13.76,13.76,0,0,0,5,26.59,13.61,13.61,0,0,0,6.36-1.57C133.56,72.49,127.29,64.53,132.81,50.41Z"/><path class="cls-5" d="M151.57,63.23A13.78,13.78,0,0,0,137.8,49.46a13.55,13.55,0,0,0-5,.95c-5.52,14.12.75,22.08,11.35,25A13.74,13.74,0,0,0,151.57,63.23Z"/></g><path class="cls-6" d="M136.91,48.06a6.38,6.38,0,0,0-4.18,0A6.45,6.45,0,0,0,128.56,53a6.53,6.53,0,0,0,3,1.41A11.35,11.35,0,0,1,136.91,48.06Z"/><path class="cls-7" d="M145.51,49.08a6.39,6.39,0,0,0-6.34.19l-.07,0,0,0a6.66,6.66,0,0,0-2.14-1.2,11.35,11.35,0,0,0-5.33,6.36,6.34,6.34,0,0,0,3-.14,4.21,4.21,0,0,0,1.24,2,4.07,4.07,0,0,0,5.65-.19,4.75,4.75,0,0,0,.89-1.39l.12.08a6.41,6.41,0,0,0,6.44-.24A6.43,6.43,0,0,0,145.51,49.08Z"/></g></g></g></g></svg>