<svg xmlns="http://www.w3.org/2000/svg" viewBox="0 0 242.14 364.58"><defs><style>.cls-1{fill:#8dc63f;}.cls-2{fill:#87b540;}.cls-3{fill:#603913;}</style></defs><title>Round mangosteen tree</title><g id="Layer_2" data-name="Layer 2"><g id="Mangosteen_tree" data-name="Mangosteen tree"><g id="Round_mangosteen_tree" data-name="Round mangosteen tree"><g id="Tree_bush" data-name="Tree bush"><path class="cls-1" d="M242.14,121.07A121.07,121.07,0,0,0,70,11.28c-69.75,102.91-33,193.63,48.39,230.8.88,0,1.76.06,2.64.06A121.06,121.06,0,0,0,242.14,121.07Z"/><path class="cls-2" d="M70,11.28a121.05,121.05,0,0,0,48.39,230.8C37.05,204.91.29,114.19,70,11.28Z"/></g><path class="cls-3" d="M132,364.58c-.14-51.62-2.63-98.37-4.32-151.55-.73-32.56.89-68.59-7.28-93.62-8.89,22.87-7.66,63.54-8.83,95.72-1.37,65.81-2.77,99.4-2.77,149.45Z"/><path class="cls-3" d="M127.39,190.09c21-16.58,35.81-26.71,49.39-37.22-9,24.38-30.63,42.2-49.14,58.31C127.64,211.61,127.39,190.09,127.39,190.09Z"/><path class="cls-3" d="M113.52,190.54c-22.37-16.24-42.69-28.53-55-42.63C70.31,174.23,94.1,197,114,213,114,213.52,113.52,190.54,113.52,190.54Z"/></g></g></g></svg>