<svg xmlns="http://www.w3.org/2000/svg" viewBox="0 0 145.97 65.72"><defs><style>.cls-1{fill:#a95632;}.cls-2{fill:#b77649;}.cls-3{fill:#725038;}.cls-4{fill:#91391f;}.cls-5{fill:none;stroke:#434343;stroke-miterlimit:10;stroke-width:3px;}.cls-6{fill:#8d4f26;}.cls-7{fill:#4f312c;}.cls-8{fill:#66423d;}.cls-9{fill:#a5a4a4;}.cls-10{fill:#bababa;}.cls-11{fill:#565656;}.cls-12{fill:#6b6b6b;}</style></defs><title>Asset 2</title><g id="Layer_2" data-name="Layer 2"><g id="Layer_2-2" data-name="Layer 2"><g id="wagon_body" data-name="wagon body"><path class="cls-1" d="M103.3,35.25,49.9,40.31a1.15,1.15,0,0,1-1.21-.84L40.41,9.16a1.15,1.15,0,0,1,1-1.45l63.59-6a1.15,1.15,0,0,1,1.25,1.21l-1.91,31.28A1.15,1.15,0,0,1,103.3,35.25Z"/><g id="Wagon_tile" data-name="Wagon tile"><path class="cls-2" d="M105.59,7.39,41.27,13.47a1.05,1.05,0,0,1-1.11-.73l-1.61-5a1.08,1.08,0,0,1,.92-1.39L106.22,0a1.07,1.07,0,0,1,1.15,1.23l-.83,5.26A1.08,1.08,0,0,1,105.59,7.39Z"/><circle class="cls-3" cx="42.93" cy="9.77" r="1.3"/><circle class="cls-3" cx="103.13" cy="3.96" r="1.3"/></g><g id="Wagon_tile-2" data-name="Wagon tile"><path class="cls-2" d="M105.28,19l-61.6,5.83a.87.87,0,0,1-.92-.61l-1.67-5.41a.87.87,0,0,1,.75-1.13L106,11.64a.88.88,0,0,1,.94,1l-.83,5.65A.88.88,0,0,1,105.28,19Z"/><ellipse class="cls-3" cx="45.35" cy="21.15" rx="1.24" ry="1.3" transform="matrix(1, -0.09, 0.09, 1, -1.79, 4.37)"/><ellipse class="cls-3" cx="102.82" cy="15.6" rx="1.24" ry="1.3" transform="translate(-1.01 9.76) rotate(-5.41)"/></g><g id="Wagon_tile-3" data-name="Wagon tile"><path class="cls-2" d="M104.54,30.47,46.12,36a.88.88,0,0,1-.92-.62l-1.56-5a.89.89,0,0,1,.76-1.14l60.75-5.75a.87.87,0,0,1,.95,1l-.77,5.23A.89.89,0,0,1,104.54,30.47Z"/><ellipse class="cls-3" cx="47.67" cy="32.49" rx="1.18" ry="1.23" transform="translate(-2.85 4.64) rotate(-5.41)"/><ellipse class="cls-3" cx="102.24" cy="27.22" rx="1.18" ry="1.23" transform="translate(-2.11 9.76) rotate(-5.41)"/></g><rect class="cls-4" x="19.28" y="36.68" width="125.56" height="5.54" rx="2.77" transform="translate(-3.35 7.91) rotate(-5.41)"/><g id="wagon_wheel" data-name="wagon wheel"><rect class="cls-4" x="18.5" y="27.4" width="3.01" height="36.76"/><rect class="cls-4" x="18.5" y="27.4" width="3.01" height="36.76" transform="translate(65.79 25.78) rotate(90)"/><rect class="cls-4" x="18.5" y="27.19" width="3.01" height="36.76" transform="translate(34.49 -2.04) rotate(40.62)"/><rect class="cls-4" x="18.5" y="27.19" width="3.01" height="36.76" transform="translate(66.37 63.65) rotate(135)"/><circle id="Wheel" class="cls-5" cx="20" cy="45.72" r="18.5"/><circle class="cls-2" cx="20" cy="45.57" r="6.7"/><circle class="cls-6" cx="20" cy="45.57" r="3.36"/></g></g></g><g id="Bucket"><g id="Bucket-2" data-name="Bucket"><path class="cls-7" d="M110.34,29.67c0,5.22,7.12,9.46,15.91,9.46V20.2C117.46,20.2,110.34,24.44,110.34,29.67Z"/><path class="cls-8" d="M126.25,20.2V39.13c8.79,0,15.91-4.24,15.91-9.46S135,20.2,126.25,20.2Z"/><path class="cls-9" d="M107.93,32.11l6.51,31.41a2.53,2.53,0,0,0,2.47,2h9.34V32.11Z"/><path class="cls-10" d="M126.25,32.11V65.53h10.23A2.51,2.51,0,0,0,139,63.45l5.61-31.34Z"/><path class="cls-11" d="M108.39,29.67a1.86,1.86,0,0,0-1.86,1.86v3.36a1.86,1.86,0,0,0,1.86,1.86h17.86V29.67Z"/><path class="cls-12" d="M144.1,29.67H126.25v7.08H144.1A1.87,1.87,0,0,0,146,34.89V31.53A1.87,1.87,0,0,0,144.1,29.67Z"/></g></g></g></svg>