<svg xmlns="http://www.w3.org/2000/svg" viewBox="0 0 276.69 211.29"><defs><style>.cls-1{fill:#ef7322;}.cls-2{fill:#dd6626;}</style></defs><title>Watering Can</title><g id="Layer_2" data-name="Layer 2"><g id="Watering_Can" data-name="Watering Can"><g id="Watering_Can-2" data-name="Watering Can"><path class="cls-1" d="M241.48,68.42c-19.44,0-35.21,16.9-35.21,37.74s15.77,37.75,35.21,37.75,35.21-16.9,35.21-37.75S260.93,68.42,241.48,68.42Zm-2.27,63.75c-13.4,0-24.26-11.65-24.26-26s10.86-26,24.26-26,24.26,11.65,24.26,26S252.61,132.17,239.21,132.17Z"/><path class="cls-1" d="M135.76,29.68c.29,16.07,14.5,28.84,31.72,28.52s31-13.6,30.66-29.67S183.64-.31,166.41,0,135.46,13.61,135.76,29.68Zm52.72.91c.2,11.07-9.26,20.22-21.13,20.44s-21.66-8.58-21.86-19.65,9.25-20.23,21.12-20.45S188.27,19.51,188.48,30.59Z"/><path class="cls-2" d="M40.07,80.56,25.35,65.15c-2.5-2.61-6.74-2.5-8.27.21l-9.59,17-7,12.38c-1.52,2.7.54,6.36,4,7.17l20.75,4.83,102.07,57.56,6-10.62,8.78-15.58Z"/><g id="Body"><path class="cls-1" d="M265.05,186.14,231.63,49.65A20.31,20.31,0,0,0,211.9,34.16H136.58c-15.8,54.44-24.23,131-.57,177.13H245.32A20.31,20.31,0,0,0,265.05,186.14Z"/><path class="cls-2" d="M136.58,34.16H116.33A20.32,20.32,0,0,0,96.64,49.45L61.77,185.94a20.32,20.32,0,0,0,19.69,25.35H136C112.35,165.12,120.78,88.6,136.58,34.16Z"/></g></g></g></g></svg>