<svg xmlns="http://www.w3.org/2000/svg" viewBox="0 0 43.26 55.35"><defs><style>.cls-1,.cls-2,.cls-3{fill:none;stroke:#000;stroke-linejoin:round;stroke-width:1.5px;}.cls-1,.cls-3{fill-rule:evenodd;}.cls-3{stroke-linecap:round;}.cls-4{fill:#231f20;stroke:#010101;stroke-miterlimit:10;stroke-width:0.5px;}</style></defs><title>Light bulb</title><g id="Layer_2" data-name="Layer 2"><g id="Business"><g id="Light_bulb" data-name="Light bulb"><path class="cls-1" d="M42.51,21.63A20.88,20.88,0,1,0,9.6,38.7,5.61,5.61,0,0,1,12,43.28V47a2.41,2.41,0,0,0,2.42,2.41H28.87A2.41,2.41,0,0,0,31.28,47V43.28a5.61,5.61,0,0,1,2.38-4.58A20.84,20.84,0,0,0,42.51,21.63Z"/><path class="cls-2" d="M13.67,49.41H29.59a0,0,0,0,1,0,0v3.41a1.78,1.78,0,0,1-1.78,1.78H15.45a1.78,1.78,0,0,1-1.78-1.78V49.41A0,0,0,0,1,13.67,49.41Z"/><polyline class="cls-3" points="20.1 49.1 20.1 37.47 14.34 32.67"/><polyline class="cls-3" points="22.98 49.1 22.98 37.47 28.75 32.67"/><path class="cls-4" d="M24.75,26.4a3.32,3.32,0,0,1-1.23,1.11,4.42,4.42,0,0,1-1.87.49v2.32a.37.37,0,0,1-.09.25.36.36,0,0,1-.52,0,.37.37,0,0,1-.1-.25V28a5.45,5.45,0,0,1-2.08-.53,6.89,6.89,0,0,1-1.8-1.34.36.36,0,0,1-.11-.26.43.43,0,0,1,.13-.28.35.35,0,0,1,.26-.13.41.41,0,0,1,.31.16,4.55,4.55,0,0,0,1.49,1.17,4.68,4.68,0,0,0,1.8.48V21.84a15,15,0,0,1-1.8-.79A3.26,3.26,0,0,1,18,20a2.81,2.81,0,0,1-.46-1.68,2.78,2.78,0,0,1,.92-2.09,4,4,0,0,1,2.48-1V13.65a.39.39,0,0,1,.1-.25.36.36,0,0,1,.52,0,.38.38,0,0,1,.09.25v1.6a5.15,5.15,0,0,1,1.88.41,3.61,3.61,0,0,1,1.39,1,.79.79,0,0,1,.18.37.34.34,0,0,1-.14.26.42.42,0,0,1-.29.12.28.28,0,0,1-.23-.11,3.35,3.35,0,0,0-1.19-1,4,4,0,0,0-1.6-.41v5.28a14.41,14.41,0,0,1,1.87.79A3,3,0,0,1,25.18,25,2.61,2.61,0,0,1,24.75,26.4ZM19,19.92a6.37,6.37,0,0,0,1.94,1V16a3.43,3.43,0,0,0-1.9.75,2.14,2.14,0,0,0,0,3.2Zm4.65,6.63a2.06,2.06,0,0,0,.77-1.64,2.13,2.13,0,0,0-.73-1.7,6.83,6.83,0,0,0-2-1.1v5.18A3.41,3.41,0,0,0,23.65,26.55Z"/></g></g></g></svg>