<svg xmlns="http://www.w3.org/2000/svg" viewBox="0 0 60.65 61.53"><defs><style>.cls-1,.cls-2,.cls-4,.cls-5{fill:none;stroke-width:1.5px;}.cls-1,.cls-2,.cls-4{stroke:#000;}.cls-1,.cls-3,.cls-4,.cls-5{stroke-miterlimit:10;}.cls-2,.cls-4{stroke-linecap:round;}.cls-2{stroke-linejoin:round;}.cls-3{fill:#231f20;stroke:#010101;stroke-width:0.5px;}.cls-5{stroke:#231f20;}</style></defs><title>Asset 36</title><g id="Layer_2" data-name="Layer 2"><g id="Debt"><circle class="cls-1" cx="8.56" cy="14.3" r="5.09"/><path class="cls-2" d="M32.26,57.2l-6.37-15a2.38,2.38,0,0,0-1.2-1.24,1.91,1.91,0,0,0-.83-.41l-4.52-1a1.61,1.61,0,0,1-1.29-1.39A76.64,76.64,0,0,0,16,29.26c-.43-1.64-.79-3.13-1.16-4.42,0,0,0-.05.05,0l3.05.93a1.14,1.14,0,0,0,.32.07,1.81,1.81,0,0,0,1.26.09l9.62-3a1.87,1.87,0,0,0,1.36-2,1.79,1.79,0,0,0-2.29-1.45s-8.75,2.38-9.41,2.42l-.07,0-7-2.19a5.37,5.37,0,0,0-2.93-.07c-3.89,1-2.94,5.1-1.51,11.93.48,2.29,1.44,5.91,2.24,8.67h0c0,1.46.21,4.87-.15,5.38L1.22,56.49a2.35,2.35,0,0,0,.47,3.29l.17.13a2.35,2.35,0,0,0,3.29-.47l8.5-11.33a36.33,36.33,0,0,0,1.1-4.93,9.51,9.51,0,0,0,2.14.89l4.89,1s0,0,0,0l6,14.15a2.46,2.46,0,0,0,3.41,1.21A2.57,2.57,0,0,0,32.26,57.2Z"/><path class="cls-3" d="M45,22.47a2.69,2.69,0,0,1-1,.87,3.39,3.39,0,0,1-1.46.39v1.83a.3.3,0,0,1-.08.2.29.29,0,0,1-.21.08.28.28,0,0,1-.2-.08.29.29,0,0,1-.07-.2V23.74a4.09,4.09,0,0,1-1.65-.41,5.52,5.52,0,0,1-1.42-1.06.25.25,0,0,1-.08-.21.32.32,0,0,1,.09-.21.31.31,0,0,1,.21-.11.3.3,0,0,1,.24.13A3.72,3.72,0,0,0,42,23.17v-4.3a12.53,12.53,0,0,1-1.43-.62,2.49,2.49,0,0,1-.9-.81,2.27,2.27,0,0,1-.36-1.33A2.18,2.18,0,0,1,40,14.46a3,3,0,0,1,2-.78V12.4a.26.26,0,0,1,.07-.19.25.25,0,0,1,.2-.09.26.26,0,0,1,.21.09.27.27,0,0,1,.08.19v1.26A4,4,0,0,1,44,14a2.82,2.82,0,0,1,1.1.82.65.65,0,0,1,.14.29.26.26,0,0,1-.1.21.35.35,0,0,1-.23.09.23.23,0,0,1-.19-.09,2.63,2.63,0,0,0-.94-.76,3.26,3.26,0,0,0-1.25-.33v4.17A11.47,11.47,0,0,1,44,19a2.42,2.42,0,0,1,1.32,2.3A2.09,2.09,0,0,1,45,22.47Zm-4.54-5.12a5.11,5.11,0,0,0,1.54.83V14.24a2.73,2.73,0,0,0-1.51.58,1.6,1.6,0,0,0-.58,1.28A1.55,1.55,0,0,0,40.45,17.35Zm3.67,5.24a1.61,1.61,0,0,0,.61-1.3A1.71,1.71,0,0,0,44.16,20a5.56,5.56,0,0,0-1.61-.87v4.09A2.71,2.71,0,0,0,44.12,22.59Z"/><path class="cls-4" d="M25.65,24.05a17.57,17.57,0,1,0-1-5.7,17.94,17.94,0,0,0,.12,2"/><path class="cls-5" d="M9.55,40.22c.54,2.34,2.18,4.06,5.2,3"/></g></g></svg>