<svg xmlns="http://www.w3.org/2000/svg" viewBox="0 0 44.48 39.74"><defs><style>.cls-1{fill:#010101;}.cls-2,.cls-3{fill:none;stroke:#010101;stroke-miterlimit:10;stroke-width:1.5px;}.cls-3{stroke-linecap:round;}</style></defs><title>Wallet</title><g id="Layer_2" data-name="Layer 2"><g id="Cons"><g id="Wallet"><path class="cls-1" d="M29.36,1.53c0,.09.08.21.14.39l2.15,7.74.31,1.1h4.11a1,1,0,0,1,1,1v7.65h-4.6a5.56,5.56,0,0,0,0,11.12h4.6V37.2a1,1,0,0,1-1,1H2.54a1,1,0,0,1-1-1V11.8a1,1,0,0,1,1-1H7.69l-.53-1.9-.5-1.78V7l0-.06s0-.1,0-.14l.36-.08H7L28.84,1.65h.07a4.6,4.6,0,0,1,.45-.11M29.57,0A4.17,4.17,0,0,0,28.5.19L6.67,5.25c-1.59.29-1.93,1-1.45,2.23l.5,1.78H2.54A2.54,2.54,0,0,0,0,11.8V37.2a2.54,2.54,0,0,0,2.54,2.54H36.07a2.54,2.54,0,0,0,2.54-2.54V29.07h-6.1A4.06,4.06,0,0,1,28.45,25h0A4.06,4.06,0,0,1,32.51,21h6.1V11.8a2.54,2.54,0,0,0-2.54-2.54h-3L30.94,1.52C30.62.41,30.27,0,29.57,0Z"/><circle class="cls-1" cx="31.53" cy="25.01" r="1.39"/><path class="cls-2" d="M38.61,20.21H40a.37.37,0,0,1,.34.4v8.73a.44.44,0,0,1-.42.47H38.61"/><path class="cls-3" d="M41.46,10.5A3.13,3.13,0,0,0,40.25,8a3.12,3.12,0,0,0-2.66-.82"/><path class="cls-3" d="M43.72,9.53a4.55,4.55,0,0,0-2-3.72,4.55,4.55,0,0,0-4.13-.87"/><line class="cls-3" x1="3.78" y1="13.53" x2="35.53" y2="13.53"/><line class="cls-3" x1="6.57" y1="9.53" x2="7.63" y2="13.53"/><line class="cls-3" x1="32.35" y1="9.39" x2="33.41" y2="13.39"/></g></g></g></svg>