<svg xmlns="http://www.w3.org/2000/svg" viewBox="0 0 55.43 61.29"><defs><style>.cls-1,.cls-2{fill:none;stroke-width:1.5px;}.cls-1,.cls-2,.cls-3{stroke:#010101;stroke-miterlimit:10;}.cls-2{stroke-linecap:round;}.cls-3{fill:#231f20;stroke-width:0.5px;}</style></defs><title>Piggybank</title><g id="Layer_2" data-name="Layer 2"><g id="Savings"><g id="Piggybank"><circle class="cls-1" cx="19.78" cy="13.22" r="12.47"/><path class="cls-1" d="M30.83,19c.09,0,.34.1.24.08-1.41-.2,2.45.43,3.76.82h0c.59,0,1.5-1.9,3.66-3.06,3-1.61,7.42-2.6,8-2.14,1.23,1-3.82,6.63-4.23,8.61,4.48,3,7.56,7.13,8.38,11.84h1.9a2.15,2.15,0,0,1,2.14,2.14v5.74a2.14,2.14,0,0,1-2.14,2.14H48.86a19.32,19.32,0,0,1-4.76,5.55L45.5,56A2.15,2.15,0,0,1,44,58.58l-3,.8a2.13,2.13,0,0,1-2.62-1.51l-.88-3.28a32.21,32.21,0,0,1-22.71.26l-1.12,4.37a1.76,1.76,0,0,1-2.13,1.26L9.69,60l-1.92-.49A1.77,1.77,0,0,1,6.5,57.38l1.21-4.7c-4.53-3.45-7-9.7-7-15,0-6.39,4.13-12,10.48-15.51"/><circle class="cls-1" cx="43.21" cy="34.35" r="2.14"/><line class="cls-2" x1="11.74" y1="25.81" x2="28.98" y2="25.89"/><path class="cls-3" d="M22.63,16.69a2.49,2.49,0,0,1-1,.87A3.36,3.36,0,0,1,20.2,18v1.83a.27.27,0,0,1-.08.19.25.25,0,0,1-.2.09.29.29,0,0,1-.28-.28V18A4.09,4.09,0,0,1,18,17.55a5.71,5.71,0,0,1-1.42-1.05.32.32,0,0,1-.08-.21.3.3,0,0,1,.1-.22.26.26,0,0,1,.21-.1.31.31,0,0,1,.23.12,3.74,3.74,0,0,0,1.18.92,3.49,3.49,0,0,0,1.42.38V13.11a12.09,12.09,0,0,1-1.42-.63,2.46,2.46,0,0,1-.9-.8A2.24,2.24,0,0,1,17,10.36a2.17,2.17,0,0,1,.73-1.65,3,3,0,0,1,1.95-.78V6.66a.26.26,0,0,1,.08-.2.26.26,0,0,1,.2-.08.28.28,0,0,1,.2.08.3.3,0,0,1,.08.2V7.91a4,4,0,0,1,1.47.33,2.72,2.72,0,0,1,1.1.82.61.61,0,0,1,.13.29.25.25,0,0,1-.1.2.35.35,0,0,1-.23.09.21.21,0,0,1-.18-.08,2.72,2.72,0,0,0-.94-.76,3.26,3.26,0,0,0-1.25-.33v4.16a11.62,11.62,0,0,1,1.46.62,2.73,2.73,0,0,1,.94.85A2.54,2.54,0,0,1,23,15.55,2,2,0,0,1,22.63,16.69Zm-4.52-5.1a5.17,5.17,0,0,0,1.53.83V8.49a2.7,2.7,0,0,0-1.5.58,1.58,1.58,0,0,0-.58,1.27A1.55,1.55,0,0,0,18.11,11.59Zm3.66,5.22a1.62,1.62,0,0,0,.6-1.29,1.68,1.68,0,0,0-.57-1.34,5.24,5.24,0,0,0-1.6-.86v4.07A2.71,2.71,0,0,0,21.77,16.81Z"/></g></g></g></svg>