<?xml version="1.0" encoding="UTF-8"?>
<svg width="59px" height="33px" viewBox="0 0 59 33" version="1.1" xmlns="http://www.w3.org/2000/svg" xmlns:xlink="http://www.w3.org/1999/xlink">
    <!-- Generator: Sketch 54.1 (76490) - https://sketchapp.com -->
    <title>Cloud Small</title>
    <desc>Created with Sketch.</desc>
    <g id="All-of-it" stroke="none" stroke-width="1" fill="none" fill-rule="evenodd">
        <g id="Progress/Module1-Copy" transform="translate(-229.000000, -95.000000)">
            <g id="Stage-2-Illustration" transform="translate(17.000000, 83.000000)">
                <g id="Cloud-Small" transform="translate(212.000000, 12.000000)">
                    <path d="M47.2895959,12.6704213 C47.9039472,12.5372066 48.4144802,12.4666667 48.8024691,12.4666667 C54.4344099,12.4666667 59,17.0632099 59,22.7333333 C59,28.4034568 54.4344099,33 48.8024691,33 C45.0478419,33 32.6862878,33 11.7178066,33 C11.7178066,32.9863289 11.7179894,32.9726043 11.7183543,32.9588266 C5.15940932,32.4315639 -4.54747351e-13,26.9057225 -4.54747351e-13,20.1666667 C-4.54747351e-13,13.0790124 5.7069876,7.33333333 12.7469136,7.33333333 C15.5657135,7.33333333 18.1708144,8.25449037 20.2814326,9.81411696 C22.0262069,4.12984837 27.2871487,0 33.5061728,0 C40.7266883,0 46.6557028,5.56706162 47.2895959,12.6704213 Z" id="Combined-Shape" fill="#F4F4F4"></path>
                    <path d="M5.91524586,31 C2.36032309,28.7269228 -4.8316906e-13,24.7193189 -4.8316906e-13,20.1548067 C-4.8316906e-13,13.0713207 5.68429751,7.32902063 12.6962338,7.32902063 C15.5038266,7.32902063 18.0985701,8.24963593 20.2007968,9.80834531 C21.9386342,4.12741963 27.1786593,0 33.3729575,0 C36.193302,0 38.8158161,0.855654996 41,2.32401099 C32.1782484,1.95003159 24.6673297,6.18628519 22.2637529,13.9251392 C11.1930971,4.67768283 -0.872717004,19.4285449 5.91524586,31 Z" id="Combined-Shape" fill="#E5E4E4"></path>
                </g>
            </g>
        </g>
    </g>
</svg>