<svg xmlns="http://www.w3.org/2000/svg" viewBox="0 0 128.71 242.16"><defs><style>.cls-1{fill:#603913;}.cls-2{fill:#7daa40;}.cls-3{fill:#8dc63f;}</style></defs><title>Mini Tree</title><g id="Layer_2" data-name="Layer 2"><g id="New_Mini_Tree" data-name="New Mini Tree"><g id="Mini_Tree" data-name="Mini Tree"><path class="cls-1" d="M53.58,242.16c.19-50.68-.17-93.53,2.76-145.11C57.48,73.42,59.93,41.73,62.47.88A.84.84,0,0,1,64.15.77c6.74,38.68,7.34,71.67,8.75,98.43,3,57,6.45,89.38,8.37,143Z"/><path class="cls-1" d="M61.75,111.12c-23-19.58-34-29.35-54.5-47.5a.87.87,0,0,0-1.32,1.09c17,28.61,28.9,39.75,52.21,58.79C58.14,124.08,61.75,111.12,61.75,111.12Z"/><path class="cls-2" d="M90.4,75.15c0,5,2.81,9,6.28,9V66.11C93.21,66.11,90.4,70.16,90.4,75.15Z"/><path class="cls-3" d="M96.68,66.11V84.2c3.47,0,6.29-4,6.29-9S100.15,66.11,96.68,66.11Z"/><path class="cls-2" d="M98,105.46c-4.93.83-8.46,4.27-7.88,7.69l17.84-3C107.41,106.73,103,104.63,98,105.46Z"/><path class="cls-3" d="M108,110.15l-17.84,3c.57,3.42,5,5.53,10,4.7S108.56,113.57,108,110.15Z"/><path class="cls-1" d="M67.41,112.51c22.81-19.39,33.78-29.17,53.92-47a1,1,0,0,1,1.5,1.24C106,94.89,94.15,106,71,124.89,71,125.47,67.41,112.51,67.41,112.51Z"/><path class="cls-1" d="M60.75,55.65c-13.88-11.81-20.86-18-32.67-28.45a1,1,0,0,0-1.43,1.21C36.76,45,44.28,51.92,58.45,63.5,58.45,63.87,60.75,55.65,60.75,55.65Z"/><path class="cls-1" d="M64.34,56.53c14-11.93,21-18.12,33-28.78a.87.87,0,0,1,1.32,1.1C88.46,45.71,80.93,52.7,66.63,64.38,66.63,64.75,64.34,56.53,64.34,56.53Z"/><path class="cls-2" d="M121.45,76.84c-3.57.6-6.13,3.1-5.71,5.57l12.93-2.17C128.25,77.76,125,76.24,121.45,76.84Z"/><path class="cls-3" d="M128.67,80.24l-12.93,2.17c.42,2.48,3.65,4,7.22,3.4S129.08,82.72,128.67,80.24Z"/><path class="cls-2" d="M35.88,83c0,5,2.81,9,6.28,9V74C38.69,74,35.88,78,35.88,83Z"/><path class="cls-3" d="M42.16,74v18.1c3.47,0,6.28-4,6.28-9S45.63,74,42.16,74Z"/><path class="cls-2" d="M34.18,120.37c5,0,9.06-2.78,9.07-6.25l-18.1-.06C25.14,117.53,29.18,120.35,34.18,120.37Z"/><path class="cls-3" d="M25.15,114.06l18.1.06c0-3.47-4-6.29-9-6.31S25.17,110.59,25.15,114.06Z"/><path class="cls-2" d="M9,92.3c5,0,9.06-2.78,9.07-6.25L0,86C0,89.45,4,92.28,9,92.3Z"/><path class="cls-3" d="M0,86l18.09.07c0-3.47-4-6.3-9-6.32S0,82.51,0,86Z"/><path class="cls-2" d="M50.82,32.31c2.29,2.44,5.51,3.12,7.2,1.53L49.74,25C48.05,26.62,48.53,29.88,50.82,32.31Z"/><path class="cls-3" d="M49.74,25,58,33.84c1.69-1.58,1.21-4.84-1.08-7.28S51.43,23.44,49.74,25Z"/><path class="cls-2" d="M69.45,5.57c-3.41,3.66-4.12,8.54-1.58,10.9L80.21,3.24C77.68.87,72.86,1.92,69.45,5.57Z"/><path class="cls-3" d="M80.21,3.24,67.87,16.47c2.54,2.37,7.36,1.32,10.77-2.33S82.75,5.61,80.21,3.24Z"/><path class="cls-2" d="M79,33.44c.37,3.1,2.4,5.4,4.55,5.15l-1.32-11.2C80.12,27.64,78.67,30.35,79,33.44Z"/><path class="cls-3" d="M82.26,27.39l1.32,11.2c2.14-.25,3.59-3,3.23-6.06S84.41,27.14,82.26,27.39Z"/><path class="cls-2" d="M88.47,46.85c-3.06.55-5.23,2.73-4.85,4.86l11.1-2C94.33,47.57,91.53,46.29,88.47,46.85Z"/><path class="cls-3" d="M94.72,49.69l-11.1,2c.39,2.12,3.18,3.4,6.25,2.84S95.1,51.82,94.72,49.69Z"/><path class="cls-2" d="M42.15,61.43c3.34,0,6.05-1.86,6.06-4.18l-12.1,0C36.11,59.53,38.81,61.42,42.15,61.43Z"/><path class="cls-3" d="M36.11,57.21l12.1,0c0-2.32-2.69-4.21-6-4.22S36.12,54.89,36.11,57.21Z"/><path class="cls-2" d="M32,26c0,3.12,1.79,5.63,4,5.61l-.08-11.27C33.68,20.39,32,22.93,32,26Z"/><path class="cls-3" d="M35.84,20.38l.08,11.27c2.16,0,3.9-2.55,3.88-5.66S38,20.36,35.84,20.38Z"/><path class="cls-2" d="M26.49,46c3.34,0,6.06-1.86,6.06-4.18l-12.09,0C20.45,44.06,23.15,46,26.49,46Z"/><path class="cls-3" d="M20.46,41.74l12.09,0c0-2.32-2.69-4.21-6-4.22S20.47,39.42,20.46,41.74Z"/></g></g></g></svg>