<svg xmlns="http://www.w3.org/2000/svg" viewBox="0 0 25.42 54.95"><defs><style>.cls-1{fill:#603913;}.cls-2{fill:#72421a;}.cls-3{fill:#8dc63f;}.cls-4{fill:#7daa40;}</style></defs><title>Seed</title><g id="Layer_2" data-name="Layer 2"><g id="Mangosteen_tree" data-name="Mangosteen tree"><g id="Seed"><path class="cls-1" d="M0,39.44C0,48,5.69,55,12.71,55v-31C5.69,23.93,0,30.88,0,39.44Z"/><path class="cls-2" d="M12.71,23.93V55c7,0,12.71-7,12.71-15.51S19.73,23.93,12.71,23.93Z"/><g id="Stem"><path class="cls-3" d="M.12.09C8.59,3.87,13.47,12.64,13.77,24.86a1.2,1.2,0,0,1-1.21,1.22h-.18C11.91,16.05,8.57,8,.12.09Z"/><path class="cls-4" d="M12.38,26.08h-.55a1.2,1.2,0,0,1-1.19-1C9.49,16.06,6.84,8.94,0,0L0,0C8.55,8,11.9,16,12.38,26.08Z"/></g></g></g></g></svg>