<?xml version="1.0" encoding="UTF-8"?>
<svg width="81px" height="45px" viewBox="0 0 81 45" version="1.1" xmlns="http://www.w3.org/2000/svg" xmlns:xlink="http://www.w3.org/1999/xlink">
    <!-- Generator: Sketch 54.1 (76490) - https://sketchapp.com -->
    <title>Cloud Large</title>
    <desc>Created with Sketch.</desc>
    <g id="All-of-it" stroke="none" stroke-width="1" fill="none" fill-rule="evenodd">
        <g id="Progress/Module1-Copy" transform="translate(-52.000000, -83.000000)">
            <g id="Stage-2-Illustration" transform="translate(17.000000, 83.000000)">
                <g id="Cloud-Large" transform="translate(35.000000, 0.000000)">
                    <path d="M64.9230046,17.2778472 C65.766436,17.0961909 66.4673372,17 67,17 C74.7319865,17 81,23.2680135 81,31 C81,38.7319865 74.7319865,45 67,45 C61.8453423,45 44.8743951,45 16.0871582,45 C16.0871582,44.9813575 16.0874092,44.9626422 16.0879102,44.9438544 C7.08325686,44.2248598 -2.84217094e-14,36.6896216 -2.84217094e-14,27.5 C-2.84217094e-14,17.8350169 7.83501688,10 17.5,10 C21.3698778,10 24.9463724,11.2561232 27.8440007,13.3828868 C30.2393688,5.63161142 37.4620177,0 46,0 C55.912911,0 64.0527445,7.59144766 64.9230046,17.2778472 Z" id="Combined-Shape" fill="#F4F4F4"></path>
                    <path d="M8.15334719,42.2976023 C3.25337849,39.1961277 -2.52242671e-13,33.7279975 -2.52242671e-13,27.5 C-2.52242671e-13,17.8350169 7.83501688,10 17.5,10 C21.3698778,10 24.9463724,11.2561232 27.8440007,13.3828868 C30.2393688,5.63161142 37.4620177,-1.10134124e-13 46,-1.10134124e-13 C49.8874542,-1.10134124e-13 53.5022267,1.16748886 56.5128217,3.17097072 C44.3532589,2.66069874 34.0004978,8.44080744 30.6875,19 C15.4281342,6.38241187 -1.20291952,26.5090602 8.15334719,42.2976023 Z" id="Combined-Shape" fill="#E5E4E4"></path>
                </g>
            </g>
        </g>
    </g>
</svg>