<?xml version="1.0" encoding="UTF-8"?>
<svg width="325px" height="181px" viewBox="0 0 325 181" version="1.1" xmlns="http://www.w3.org/2000/svg" xmlns:xlink="http://www.w3.org/1999/xlink">
    <!-- Generator: Sketch 55.1 (78136) - https://sketchapp.com -->
    <title>Group 171</title>
    <desc>Created with Sketch.</desc>
    <defs>
        <path d="M28.372,23.002 C28.249,23.001 28.125,23 28,23 L28,23 C12.536,23 0,35.312 0,50.5 L0,50.5 C0,60.292 5.211,68.889 13.058,73.76 L13.058,73.76 C18.018,82.453 39.837,89 65.999,89 L65.999,89 C81.952,89 96.289,86.567 106.174,82.697 L106.174,82.697 C119.658,80.716 129.999,69.295 129.999,55.5 L129.999,55.5 C129.999,45.384 124.438,36.544 116.155,31.767 L116.155,31.767 C113.097,19.834 102.099,11 89,11 L89,11 C85.682,11 82.497,11.568 79.543,12.608 L79.543,12.608 C74.559,5.023 65.876,0 56,0 L56,0 C42.096,0 30.558,9.954 28.372,23.002 L28.372,23.002 Z" id="path-1"></path>
        <path d="M28.373,23.002 C28.249,23.001 28.125,23 28,23 L28,23 C12.536,23 0,35.313 0,50.5 L0,50.5 C0,60.292 5.211,68.888 13.059,73.761 L13.059,73.761 C18.019,82.453 39.836,89 65.999,89 L65.999,89 C81.952,89 96.289,86.566 106.174,82.696 L106.174,82.696 C119.658,80.717 129.999,69.295 129.999,55.5 L129.999,55.5 C129.999,45.384 124.438,36.544 116.155,31.768 L116.155,31.768 C113.097,19.834 102.099,11 89,11 L89,11 C85.682,11 82.497,11.567 79.543,12.609 L79.543,12.609 C74.558,5.023 65.877,0 55.999,0 L55.999,0 C42.095,0 30.558,9.955 28.373,23.002 L28.373,23.002 Z" id="path-3"></path>
        <path d="M17.264,14.002 C17.176,14.002 17.087,14 17,14 L17,14 C7.611,14 0,21.611 0,31 L0,31 C0,37.145 3.261,42.529 8.146,45.515 L8.146,45.515 C11.947,50.405 24.768,54 40,54 L40,54 C48.565,54 56.368,52.864 62.233,50.998 L62.233,50.998 C71.514,50.875 78.999,43.312 78.999,34 L78.999,34 C78.999,27.751 75.628,22.289 70.604,19.335 L70.604,19.335 C68.927,11.708 62.131,6 54,6 L54,6 C51.833,6 49.759,6.406 47.854,7.145 L47.854,7.145 C44.772,2.821 39.715,0 33.999,0 L33.999,0 C25.635,0 18.68,6.043 17.264,14.002 L17.264,14.002 Z" id="path-5"></path>
        <path d="M17.264,14.002 C17.176,14.002 17.087,14 17,14 L17,14 C7.611,14 0,21.611 0,31 L0,31 C0,37.145 3.261,42.529 8.146,45.515 L8.146,45.515 C11.947,50.405 24.768,54 40,54 L40,54 C48.565,54 56.368,52.864 62.233,50.998 L62.233,50.998 C71.514,50.875 78.999,43.312 78.999,34 L78.999,34 C78.999,27.751 75.628,22.289 70.604,19.335 L70.604,19.335 C68.927,11.708 62.131,6 54,6 L54,6 C51.833,6 49.759,6.406 47.854,7.145 L47.854,7.145 C44.772,2.821 39.715,0 33.999,0 L33.999,0 C25.635,0 18.68,6.043 17.264,14.002 L17.264,14.002 Z" id="path-7"></path>
        <path d="M21.23,17.002 C10.032,17.143 0.999,26.043 0.999,37 L0.999,37 C0.999,44.318 5.028,50.717 11.039,54.203 L11.039,54.203 C15.127,60.392 30.795,65 49.499,65 L49.499,65 C60.382,65 70.237,63.44 77.381,60.918 L77.381,60.918 C87.822,59.991 96,51.427 96,41 L96,41 C96,33.491 91.759,26.95 85.486,23.53 L85.486,23.53 C83.404,14.636 75.247,8 65.5,8 L65.5,8 C63.119,8 60.833,8.395 58.706,9.124 L58.706,9.124 C55.052,3.633 48.712,0 41.499,0 L41.499,0 C31.222,0 22.712,7.378 21.23,17.002 L21.23,17.002 Z" id="path-9"></path>
        <path d="M21.23,17.002 C10.032,17.144 0.999,26.043 0.999,37 L0.999,37 C0.999,44.318 5.028,50.717 11.039,54.203 L11.039,54.203 C15.126,60.392 30.795,65 49.499,65 L49.499,65 C60.382,65 70.237,63.441 77.382,60.917 L77.382,60.917 C87.822,59.99 96,51.427 96,41 L96,41 C96,33.492 91.758,26.95 85.486,23.53 L85.486,23.53 C83.404,14.636 75.247,8 65.5,8 L65.5,8 C63.119,8 60.832,8.396 58.706,9.124 L58.706,9.124 C55.052,3.633 48.71,0 41.499,0 L41.499,0 C31.222,0 22.712,7.378 21.23,17.002 L21.23,17.002 Z" id="path-11"></path>
        <path d="M20.229,17.002 C9.032,17.144 0,26.043 0,37 L0,37 C0,44.318 4.028,50.716 10.039,54.203 L10.039,54.203 C14.127,60.392 29.795,65 48.5,65 L48.5,65 C59.382,65 69.237,63.441 76.382,60.917 L76.382,60.917 C86.822,59.99 95,51.427 95,41 L95,41 C95,33.491 90.758,26.949 84.486,23.529 L84.486,23.529 C82.404,14.635 74.247,8 64.5,8 L64.5,8 C62.118,8 59.832,8.396 57.707,9.124 L57.707,9.124 C54.053,3.633 47.71,0 40.5,0 L40.5,0 C30.222,0 21.711,7.378 20.229,17.002 L20.229,17.002 Z" id="path-13"></path>
        <path d="M9,0 C4.029,0 0,4.029 0,9 L0,9 L0,14 L325,14 L325,9 C325,4.029 320.971,0 316,0 L316,0 L9,0 Z" id="path-15"></path>
        <path d="M0.643,0.587 C0.524,0.757 0.551,1.041 0.776,1.382 L0.776,1.382 C5.428,8.413 12.798,16.38 21.977,23.815 L21.977,23.815 C31.158,31.249 40.481,36.799 48.328,39.888 L48.328,39.888 C48.708,40.039 48.992,40.005 49.133,39.853 L49.133,39.853 L49.145,39.837 L24.901,20.205 L0.657,0.572 L0.643,0.587 Z" id="path-17"></path>
        <path d="M0.786,1.117 L0.773,1.133 L49.261,40.398 L49.279,40.376 C49.394,40.206 49.365,39.924 49.142,39.589 L49.142,39.589 C44.489,32.555 37.12,24.59 27.94,17.156 L27.94,17.156 C18.76,9.721 9.436,4.17 1.589,1.082 L1.589,1.082 C1.421,1.016 1.271,0.984 1.144,0.984 L1.144,0.984 C0.985,0.984 0.863,1.033 0.786,1.117 L0.786,1.117 Z" id="path-19"></path>
        <path d="M0.57,0.661 C0.38,0.741 0.254,0.998 0.264,1.404 L0.264,1.404 C0.484,9.832 2.51,20.494 6.357,31.663 L6.357,31.663 C10.203,42.832 15.168,52.479 20.185,59.258 L20.185,59.258 C20.428,59.584 20.684,59.708 20.884,59.654 L20.884,59.654 L20.906,59.646 L10.749,30.15 L0.592,0.653 L0.57,0.661 Z" id="path-21"></path>
        <path d="M0.415,0.183 L0.394,0.19 L10.55,29.687 L20.706,59.184 L20.729,59.175 C20.919,59.095 21.046,58.84 21.034,58.434 L21.034,58.434 C20.816,50.036 18.802,39.422 14.984,28.299 L14.984,28.299 L14.883,28.006 C11.046,16.909 6.105,7.322 1.113,0.58 L1.113,0.58 C0.908,0.302 0.691,0.171 0.508,0.171 L0.508,0.171 C0.476,0.171 0.445,0.175 0.415,0.183 L0.415,0.183 Z" id="path-23"></path>
        <path d="M7.264,0.939 C4.173,8.782 1.874,19.389 1.049,31.173 L1.049,31.173 C0.225,42.956 1.026,53.778 2.997,61.978 L2.997,61.978 C3.09,62.366 3.274,62.58 3.474,62.614 L3.474,62.614 L3.507,62.617 L6.409,21.123 L7.86,0.376 L7.836,0.374 C7.63,0.375 7.414,0.561 7.264,0.939 L7.264,0.939 Z" id="path-25"></path>
        <path d="M2.29,31.914 L0.114,63.034 L0.139,63.036 C0.344,63.035 0.561,62.849 0.709,62.472 L0.709,62.472 C3.801,54.626 6.1,44.022 6.924,32.237 L6.924,32.237 C7.748,20.454 6.947,9.631 4.977,1.433 L4.977,1.433 C4.882,1.037 4.693,0.823 4.489,0.795 L4.489,0.795 L4.467,0.793 L2.29,31.914 Z" id="path-27"></path>
        <path d="M0.557,0.815 C0.37,0.902 0.252,1.161 0.276,1.569 L0.276,1.569 C0.785,9.913 3.147,20.391 7.313,31.316 L7.313,31.316 L7.527,31.875 C11.744,42.784 16.997,52.149 22.204,58.692 L22.204,58.692 C22.456,59.007 22.716,59.123 22.912,59.065 L22.912,59.065 L22.937,59.055 L0.577,0.807 L0.557,0.815 Z" id="path-29"></path>
        <path d="M0.412,0.346 L0.398,0.351 L22.757,58.6 L22.779,58.592 C22.967,58.505 23.084,58.244 23.059,57.839 L23.059,57.839 C22.546,49.422 20.147,38.839 15.913,27.811 L15.913,27.811 C11.68,16.783 6.381,7.312 1.13,0.715 L1.13,0.715 C0.921,0.452 0.706,0.328 0.526,0.328 L0.526,0.328 C0.487,0.328 0.448,0.334 0.412,0.346 L0.412,0.346 Z" id="path-31"></path>
        <path d="M16.455,0.541 C11.964,7.588 7.719,17.448 4.666,28.733 L4.666,28.733 L4.504,29.338 C1.505,40.635 0.254,51.293 0.619,59.643 L0.619,59.643 C0.637,60.049 0.781,60.296 0.975,60.363 L0.975,60.363 L0.999,60.369 L9.073,30.236 L17.147,0.102 L17.125,0.096 C17.102,0.092 17.081,0.09 17.058,0.09 L17.058,0.09 C16.869,0.09 16.652,0.235 16.455,0.541 L16.455,0.541 Z" id="path-33"></path>
        <path d="M8.607,30.57 L0.533,60.703 L0.568,60.712 C0.768,60.743 1.01,60.601 1.225,60.265 L1.225,60.265 C5.714,53.22 9.956,43.368 13.009,32.091 L13.009,32.091 L13.178,31.461 C16.175,20.166 17.426,9.508 17.06,1.162 L17.06,1.162 C17.043,0.765 16.904,0.519 16.715,0.446 L16.715,0.446 L16.681,0.437 L8.607,30.57 Z" id="path-35"></path>
        <path d="M4.078,1.171 C1.05,2.519 -0.311,6.065 1.037,9.093 L1.037,9.093 C2.384,12.12 5.931,13.482 8.959,12.134 L8.959,12.134 C11.985,10.785 13.347,7.239 11.999,4.212 L11.999,4.212 C11.004,1.978 8.812,0.651 6.515,0.651 L6.515,0.651 C5.699,0.651 4.871,0.819 4.078,1.171 L4.078,1.171 Z" id="path-37"></path>
        <path d="M0.078,1.171 L4.959,12.134 C7.985,10.785 9.347,7.239 7.999,4.212 L7.999,4.212 C7.003,1.978 4.812,0.651 2.515,0.651 L2.515,0.651 C1.7,0.651 0.871,0.819 0.078,1.171 L0.078,1.171 Z" id="path-39"></path>
        <path d="M5.486,0.875 C2.233,1.508 0.109,4.657 0.741,7.91 L0.741,7.91 C1.373,11.163 4.523,13.287 7.776,12.655 L7.776,12.655 C11.028,12.023 13.153,8.873 12.52,5.62 L12.52,5.62 C11.964,2.755 9.452,0.765 6.638,0.764 L6.638,0.764 C6.259,0.764 5.873,0.8 5.486,0.875 L5.486,0.875 Z" id="path-41"></path>
        <path d="M0.486,0.875 L2.776,12.655 C6.028,12.023 8.153,8.873 7.52,5.62 L7.52,5.62 C6.963,2.755 4.452,0.764 1.638,0.764 L1.638,0.764 C1.259,0.764 0.873,0.8 0.486,0.875 L0.486,0.875 Z" id="path-43"></path>
        <path d="M0.701,5.593 C0.355,8.888 2.745,11.841 6.041,12.188 L6.041,12.188 C9.336,12.534 12.289,10.143 12.634,6.847 L12.634,6.847 C12.981,3.552 10.59,0.599 7.294,0.253 L7.294,0.253 C7.082,0.231 6.871,0.22 6.661,0.22 L6.661,0.22 C3.629,0.22 1.024,2.51 0.701,5.593 L0.701,5.593 Z" id="path-45"></path>
        <path d="M0.041,12.188 C3.336,12.534 6.289,10.143 6.634,6.847 C6.981,3.552 4.59,0.599 1.294,0.253 L0.041,12.188 Z" id="path-47"></path>
        <path d="M61.887,0.131 L1.278,20.302 C0.602,20.526 0.292,21.306 0.631,21.934 L0.631,21.934 L15.519,49.605 C15.782,50.096 16.361,50.325 16.89,50.151 L16.89,50.151 L67.783,33.212 C68.318,33.033 68.646,32.492 68.551,31.935 L68.551,31.935 L63.379,1.029 C63.283,0.461 62.791,0.072 62.249,0.072 L62.249,0.072 C62.13,0.072 62.007,0.091 61.887,0.131 L61.887,0.131 Z" id="path-49"></path>
        <path d="M64.699,0.211 L1.075,21.386 C0.431,21.6 0.15,22.354 0.496,22.938 L0.496,22.938 L3.195,27.481 C3.45,27.909 3.97,28.103 4.446,27.945 L4.446,27.945 L65.742,7.545 C66.203,7.392 66.502,6.946 66.468,6.461 L66.468,6.461 L66.096,1.147 C66.056,0.571 65.574,0.156 65.036,0.156 L65.036,0.156 C64.925,0.156 64.812,0.173 64.699,0.211 L64.699,0.211 Z" id="path-51"></path>
        <path d="M1.812,0.725 C1.128,0.952 0.759,1.689 0.987,2.371 L0.987,2.371 C1.214,3.054 1.952,3.423 2.634,3.195 L2.634,3.195 C3.317,2.969 3.686,2.232 3.458,1.549 L3.458,1.549 C3.277,1.003 2.769,0.658 2.225,0.658 L2.225,0.658 C2.088,0.658 1.949,0.679 1.812,0.725 L1.812,0.725 Z" id="path-53"></path>
        <path d="M1.167,0.522 C0.483,0.749 0.115,1.486 0.341,2.169 L0.341,2.169 C0.57,2.852 1.306,3.22 1.989,2.993 L1.989,2.993 C2.672,2.766 3.04,2.028 2.814,1.346 L2.814,1.346 C2.633,0.8 2.124,0.454 1.579,0.454 L1.579,0.454 C1.442,0.454 1.303,0.476 1.167,0.522 L1.167,0.522 Z" id="path-55"></path>
        <path d="M62.047,0.615 L0.951,20.948 C0.425,21.123 0.193,21.738 0.472,22.217 L0.472,22.217 L3.316,27.111 C3.524,27.467 3.955,27.63 4.348,27.499 L4.348,27.499 L63.06,7.959 C63.441,7.833 63.687,7.46 63.654,7.059 L63.654,7.059 L63.194,1.373 C63.156,0.905 62.764,0.57 62.325,0.57 L62.325,0.57 C62.233,0.57 62.14,0.584 62.047,0.615 L62.047,0.615 Z" id="path-57"></path>
        <path d="M1.73,0.271 C1.077,0.489 0.735,1.219 0.961,1.9 L0.961,1.9 C1.188,2.584 1.901,2.961 2.553,2.744 L2.553,2.744 C3.205,2.528 3.549,1.799 3.322,1.115 L3.322,1.115 C3.138,0.564 2.635,0.211 2.105,0.211 L2.105,0.211 C1.98,0.211 1.854,0.231 1.73,0.271 L1.73,0.271 Z" id="path-59"></path>
        <path d="M1.479,0.936 C0.827,1.154 0.482,1.884 0.709,2.565 L0.709,2.565 C0.937,3.249 1.649,3.627 2.301,3.41 L2.301,3.41 C2.953,3.193 3.297,2.463 3.069,1.781 L3.069,1.781 C2.886,1.228 2.384,0.875 1.855,0.875 L1.855,0.875 C1.73,0.875 1.603,0.895 1.479,0.936 L1.479,0.936 Z" id="path-61"></path>
        <path d="M58.931,0.325 L1.04,19.593 C0.508,19.769 0.275,20.391 0.555,20.874 L0.555,20.874 L3.195,25.409 C3.406,25.769 3.84,25.935 4.238,25.802 L4.238,25.802 L59.913,7.272 C60.298,7.145 60.547,6.768 60.514,6.363 L60.514,6.363 L60.09,1.093 C60.052,0.62 59.656,0.279 59.212,0.279 L59.212,0.279 C59.119,0.279 59.025,0.294 58.931,0.325 L58.931,0.325 Z" id="path-63"></path>
        <path d="M1.564,0.864 C0.945,1.07 0.618,1.762 0.833,2.409 L0.833,2.409 C1.048,3.054 1.724,3.411 2.342,3.206 L2.342,3.206 C2.962,2.999 3.288,2.309 3.074,1.663 L3.074,1.663 C2.9,1.14 2.425,0.806 1.922,0.806 L1.922,0.806 C1.803,0.806 1.683,0.825 1.564,0.864 L1.564,0.864 Z" id="path-65"></path>
        <path d="M1.555,0.453 C0.937,0.658 0.61,1.351 0.825,1.996 L0.825,1.996 C1.039,2.643 1.716,3 2.335,2.794 L2.335,2.794 C2.953,2.588 3.279,1.897 3.065,1.25 L3.065,1.25 C2.893,0.728 2.416,0.394 1.914,0.394 L1.914,0.394 C1.794,0.394 1.674,0.413 1.555,0.453 L1.555,0.453 Z" id="path-67"></path>
        <path d="M116.088,0.503 L2.214,38.403 C0.762,38.886 -0.025,40.456 0.458,41.907 L0.458,41.907 C0.943,43.362 2.511,44.146 3.965,43.663 L3.965,43.663 L117.837,5.764 C119.29,5.279 120.076,3.71 119.592,2.258 L119.592,2.258 C119.205,1.096 118.123,0.361 116.962,0.361 L116.962,0.361 C116.673,0.361 116.377,0.406 116.088,0.503 L116.088,0.503 Z" id="path-69"></path>
        <path d="M5.43,0.477 C1.825,1.309 -0.422,4.906 0.409,8.511 L0.409,8.511 C1.242,12.116 4.839,14.365 8.444,13.532 L8.444,13.532 C12.049,12.701 14.297,9.102 13.466,5.497 L13.466,5.497 C12.75,2.399 9.993,0.303 6.944,0.303 L6.944,0.303 C6.445,0.303 5.938,0.36 5.43,0.477 L5.43,0.477 Z" id="path-71"></path>
        <path d="M3.182,0.734 C1.376,1.151 0.25,2.953 0.667,4.759 L0.667,4.759 C1.084,6.566 2.887,7.693 4.693,7.276 L4.693,7.276 C6.499,6.858 7.625,5.056 7.209,3.249 L7.209,3.249 C6.85,1.697 5.47,0.646 3.942,0.646 L3.942,0.646 C3.691,0.646 3.437,0.675 3.182,0.734 L3.182,0.734 Z" id="path-73"></path>
        <path d="M0.453,10.133 C0.453,15.359 7.577,19.595 16.365,19.595 L16.365,19.595 L16.365,0.67 C7.577,0.67 0.453,4.905 0.453,10.133 L0.453,10.133 Z" id="path-75"></path>
        <path d="M0.365,19.595 C9.153,19.595 16.276,15.358 16.276,10.133 L16.276,10.133 C16.276,4.905 9.153,0.67 0.365,0.67 L0.365,0.67 L0.365,19.595 Z" id="path-77"></path>
        <path d="M0.044,0.579 L6.559,31.988 C6.802,33.16 7.835,34 9.03,34 L9.03,34 L18.364,34 L18.364,0.579 L0.044,0.579 Z" id="path-79"></path>
        <path d="M0.365,0.579 L0.365,34 L10.592,34 C11.814,34 12.862,33.124 13.077,31.92 L13.077,31.92 L18.684,0.579 L0.365,0.579 Z" id="path-81"></path>
        <path d="M2.509,0.133 C1.481,0.133 0.647,0.967 0.647,1.995 L0.647,1.995 L0.647,5.353 C0.647,6.382 1.481,7.216 2.509,7.216 L2.509,7.216 L20.364,7.216 L20.364,0.133 L2.509,0.133 Z" id="path-83"></path>
        <path d="M0.365,0.133 L0.365,7.216 L18.22,7.216 C19.248,7.216 20.082,6.382 20.082,5.353 L20.082,5.353 L20.082,1.995 C20.082,0.967 19.248,0.133 18.22,0.133 L18.22,0.133 L0.365,0.133 Z" id="path-85"></path>
        <path d="M15.484,6.611 L6.831,4.613 L0.73,31.037 L0.885,31.073 C0.932,35.133 5.731,39.352 12.373,40.886 L12.373,40.886 L21.469,1.484 L16.911,0.431 L15.484,6.611 Z" id="path-87"></path>
        <path d="M0.372,39.887 C7.014,41.42 13.177,39.729 14.999,36.101 L14.999,36.101 L15.154,36.138 L21.255,9.714 L12.601,7.716 L14.028,1.535 L9.468,0.483 L0.372,39.887 Z" id="path-89"></path>
        <polygon id="path-91" points="0.441 58.485 3.119 59.103 16.438 1.412 13.759 0.794"></polygon>
        <polygon id="path-93" points="0.635 57.83 3.468 58.483 16.787 0.792 13.955 0.139"></polygon>
        <path d="M2.527,3.786 L6.309,4.659 C5.372,6.055 3.653,6.771 1.93,6.373 L1.93,6.373 L0.243,13.681 L2.868,14.287 C3.339,14.396 3.806,14.103 3.916,13.633 L3.916,13.633 L4.945,9.175 C7.109,8.523 8.907,6.863 9.665,4.557 L9.665,4.557 C9.833,4.036 9.774,3.463 9.504,2.985 L9.504,2.985 C9.228,2.496 8.757,2.145 8.211,2.019 L8.211,2.019 L3.202,0.862 L2.527,3.786 Z" id="path-95"></path>
        <path d="M1.634,1.009 C1.18,1.322 0.876,1.812 0.802,2.354 L0.802,2.354 C0.471,4.756 1.36,7.036 3.019,8.571 L3.019,8.571 L1.991,13.029 C1.881,13.499 2.176,13.966 2.645,14.075 L2.645,14.075 L5.27,14.682 L6.957,7.373 C5.233,6.975 4.004,5.579 3.774,3.913 L3.774,3.913 L7.555,4.786 L8.23,1.862 L3.221,0.706 C3.073,0.672 2.923,0.655 2.773,0.655 L2.773,0.655 C2.369,0.655 1.97,0.777 1.634,1.009 L1.634,1.009 Z" id="path-97"></path>
        <path d="M0,20 C0,31.046 8.955,40 20,40 L20,40 C31.045,40 39.999,31.046 39.999,20 L39.999,20 C39.999,8.955 31.045,0 20,0 L20,0 C8.955,0 0,8.955 0,20 L0,20 Z" id="path-99"></path>
    </defs>
    <g id="All-of-it" stroke="none" stroke-width="1" fill="none" fill-rule="evenodd">
        <g id="Progress/Intro" transform="translate(-18.000000, -83.000000)">
            <g id="Group-171" transform="translate(18.000000, 83.000000)">
                <g id="Group-3" transform="translate(164.000000, 68.000000)">
                    <mask id="mask-2" fill="white">
                        <use xlink:href="#path-1"></use>
                    </mask>
                    <g id="Clip-2"></g>
                    <polygon id="Fill-1" fill="#449D53" mask="url(#mask-2)" points="-5 94 135 94 135 -5 -5 -5"></polygon>
                </g>
                <g id="Group-6" transform="translate(57.000000, 72.000000)">
                    <mask id="mask-4" fill="white">
                        <use xlink:href="#path-3"></use>
                    </mask>
                    <g id="Clip-5"></g>
                    <polygon id="Fill-4" fill="#449D53" mask="url(#mask-4)" points="-5 94 135 94 135 -5 -5 -5"></polygon>
                </g>
                <g id="Group-9" transform="translate(225.000000, 111.000000)">
                    <mask id="mask-6" fill="white">
                        <use xlink:href="#path-5"></use>
                    </mask>
                    <g id="Clip-8"></g>
                    <polygon id="Fill-7" fill="#52B461" mask="url(#mask-6)" points="-5 59 84 59 84 -5 -5 -5"></polygon>
                </g>
                <g id="Group-9" transform="translate(198.000000, 116.000000)">
                    <mask id="mask-8" fill="white">
                        <use xlink:href="#path-7"></use>
                    </mask>
                    <g id="Clip-8"></g>
                    <polygon id="Fill-7" fill="#52B461" mask="url(#mask-8)" points="-5 59 84 59 84 -5 -5 -5"></polygon>
                </g>
                <g id="Group-12" transform="translate(15.000000, 103.000000)">
                    <mask id="mask-10" fill="white">
                        <use xlink:href="#path-9"></use>
                    </mask>
                    <g id="Clip-11"></g>
                    <polygon id="Fill-10" fill="#52B461" mask="url(#mask-10)" points="-4 70 101 70 101 -5 -4 -5"></polygon>
                </g>
                <g id="Group-15" transform="translate(131.000000, 105.000000)">
                    <mask id="mask-12" fill="white">
                        <use xlink:href="#path-11"></use>
                    </mask>
                    <g id="Clip-14"></g>
                    <polygon id="Fill-13" fill="#52B461" mask="url(#mask-12)" points="-4 70 101 70 101 -5 -4 -5"></polygon>
                </g>
                <g id="Group-18" transform="translate(85.000000, 116.000000)">
                    <mask id="mask-14" fill="white">
                        <use xlink:href="#path-13"></use>
                    </mask>
                    <g id="Clip-17"></g>
                    <polygon id="Fill-16" fill="#52B461" mask="url(#mask-14)" points="-5 70 100 70 100 -5 -5 -5"></polygon>
                </g>
                <polygon id="Fill-19" fill="#B67649" points="0 181 325 181 325 173 0 173"></polygon>
                <g id="Group-22" transform="translate(0.000000, 159.000000)">
                    <mask id="mask-16" fill="white">
                        <use xlink:href="#path-15"></use>
                    </mask>
                    <g id="Clip-21"></g>
                    <polygon id="Fill-20" fill="#439D53" mask="url(#mask-16)" points="-5 19 330 19 330 -5 -5 -5"></polygon>
                </g>
                <g id="Group-25" transform="translate(37.000000, 72.000000)">
                    <mask id="mask-18" fill="white">
                        <use xlink:href="#path-17"></use>
                    </mask>
                    <g id="Clip-24"></g>
                    <polygon id="Fill-23" fill="#7AA740" mask="url(#mask-18)" points="-9.3001 4.921 -0.0831 -6.461 56.1789 39.098 46.9619 50.48"></polygon>
                </g>
                <g id="Group-28" transform="translate(37.000000, 72.000000)">
                    <mask id="mask-20" fill="white">
                        <use xlink:href="#path-19"></use>
                    </mask>
                    <g id="Clip-27"></g>
                    <polygon id="Fill-26" fill="#82C341" mask="url(#mask-20)" points="-6.2601 1.8712 2.9569 -9.5098 59.2179 36.0502 50.0019 47.4312"></polygon>
                </g>
                <g id="Group-31" transform="translate(61.000000, 54.000000)">
                    <mask id="mask-22" fill="white">
                        <use xlink:href="#path-21"></use>
                    </mask>
                    <g id="Clip-30"></g>
                    <polygon id="Fill-29" fill="#7AA740" mask="url(#mask-22)" points="-10.1556 -0.9355 3.6924 -5.7035 27.2614 62.7475 13.4134 67.5155"></polygon>
                </g>
                <g id="Group-34" transform="translate(61.000000, 55.000000)">
                    <mask id="mask-24" fill="white">
                        <use xlink:href="#path-23"></use>
                    </mask>
                    <g id="Clip-33"></g>
                    <polygon id="Fill-32" fill="#82C341" mask="url(#mask-24)" points="-5.9622 -2.9101 7.8848 -7.6781 31.4538 60.7729 17.6068 65.5399"></polygon>
                </g>
                <g id="Group-37" transform="translate(98.000000, 42.000000)">
                    <mask id="mask-26" fill="white">
                        <use xlink:href="#path-25"></use>
                    </mask>
                    <g id="Clip-36"></g>
                    <polygon id="Fill-35" fill="#7AA740" mask="url(#mask-26)" points="-1.4134 -5.2851 13.1956 -4.2641 8.1466 67.9539 -6.4634 66.9329"></polygon>
                </g>
                <g id="Group-40" transform="translate(101.000000, 42.000000)">
                    <mask id="mask-28" fill="white">
                        <use xlink:href="#path-27"></use>
                    </mask>
                    <g id="Clip-39"></g>
                    <polygon id="Fill-38" fill="#82C341" mask="url(#mask-28)" points="-0.1722 -4.5439 14.4368 -3.5229 9.3868 68.6951 -5.2222 67.6741"></polygon>
                </g>
                <g id="Group-43" transform="translate(75.000000, 58.000000)">
                    <mask id="mask-30" fill="white">
                        <use xlink:href="#path-29"></use>
                    </mask>
                    <g id="Clip-42"></g>
                    <polygon id="Fill-41" fill="#7AA740" mask="url(#mask-30)" points="-10.2191 -0.4052 3.4539 -5.6532 29.3969 61.9328 15.7239 67.1808"></polygon>
                </g>
                <g id="Group-46" transform="translate(75.000000, 59.000000)">
                    <mask id="mask-32" fill="white">
                        <use xlink:href="#path-31"></use>
                    </mask>
                    <g id="Clip-45"></g>
                    <polygon id="Fill-44" fill="#82C341" mask="url(#mask-32)" points="-6.0618 -2.5263 7.6102 -7.7743 33.5532 59.8117 19.8812 65.0607"></polygon>
                </g>
                <g id="Group-49" transform="translate(110.000000, 45.000000)">
                    <mask id="mask-34" fill="white">
                        <use xlink:href="#path-33"></use>
                    </mask>
                    <g id="Clip-48"></g>
                    <polygon id="Fill-47" fill="#7AA740" mask="url(#mask-34)" points="9.1247 -7.2245 23.2707 -3.4335 4.5337 66.4945 -9.6123 62.7035"></polygon>
                </g>
                <g id="Group-52" transform="translate(110.000000, 45.000000)">
                    <mask id="mask-36" fill="white">
                        <use xlink:href="#path-35"></use>
                    </mask>
                    <g id="Clip-51"></g>
                    <polygon id="Fill-50" fill="#82C341" mask="url(#mask-36)" points="13.1462 -5.6874 27.2922 -1.8974 8.5552 68.0306 -5.5898 64.2406"></polygon>
                </g>
                <polygon id="Fill-53" fill="#3A8947" points="61.2315 83.7131 76.6875 118.4281 79.4275 117.2071 63.9715 82.4931"></polygon>
                <g id="Group-56" transform="translate(54.000000, 73.000000)">
                    <mask id="mask-38" fill="white">
                        <use xlink:href="#path-37"></use>
                    </mask>
                    <g id="Clip-55"></g>
                    <polygon id="Fill-54" fill="#F1C049" mask="url(#mask-38)" points="-8.0052 1.0772 12.0928 -7.8708 21.0408 12.2262 0.9428 21.1752"></polygon>
                </g>
                <g id="Group-59" transform="translate(58.000000, 73.000000)">
                    <mask id="mask-40" fill="white">
                        <use xlink:href="#path-39"></use>
                    </mask>
                    <g id="Clip-58"></g>
                    <polygon id="Fill-57" fill="#FBD169" mask="url(#mask-40)" points="8.0925 -7.871 -6.5235 -1.363 2.4245 18.734 17.0405 12.227"></polygon>
                </g>
                <polygon id="Fill-60" fill="#3A8947" points="87.4125 62.8817 94.6625 100.1847 97.6075 99.6117 90.3575 62.3097"></polygon>
                <g id="Group-63" transform="translate(81.000000, 52.000000)">
                    <mask id="mask-42" fill="white">
                        <use xlink:href="#path-41"></use>
                    </mask>
                    <g id="Clip-62"></g>
                    <polygon id="Fill-61" fill="#F1C049" mask="url(#mask-42)" points="-6.2659 -1.9335 15.3301 -6.1315 19.5281 15.4635 -2.0689 19.6625"></polygon>
                </g>
                <g id="Group-66" transform="translate(86.000000, 52.000000)">
                    <mask id="mask-44" fill="white">
                        <use xlink:href="#path-43"></use>
                    </mask>
                    <g id="Clip-65"></g>
                    <polygon id="Fill-64" fill="#FBD169" mask="url(#mask-44)" points="10.3298 -6.1318 -5.3762 -3.0788 -1.1782 18.5162 14.5278 15.4642"></polygon>
                </g>
                <polygon id="Fill-67" fill="#3A8947" points="109.2825 105.8855 112.2655 106.1995 116.2385 68.4075 113.2545 68.0935"></polygon>
                <g id="Group-70" transform="translate(108.000000, 58.000000)">
                    <mask id="mask-46" fill="white">
                        <use xlink:href="#path-45"></use>
                    </mask>
                    <g id="Clip-69"></g>
                    <polygon id="Fill-68" fill="#F1C049" mask="url(#mask-46)" points="-3.1224 -5.8691 18.7576 -3.5691 16.4576 18.3099 -5.4224 16.0109"></polygon>
                </g>
                <g id="Group-73" transform="translate(114.000000, 58.000000)">
                    <mask id="mask-48" fill="white">
                        <use xlink:href="#path-47"></use>
                    </mask>
                    <use id="Clip-72" fill="#F1C049" xlink:href="#path-47"></use>
                    <polygon id="Fill-71" fill="#FBD169" mask="url(#mask-48)" points="12.7575 -3.5693 -3.1555 -5.2423 -5.4545 16.6377 10.4575 18.3097"></polygon>
                </g>
                <g id="Group-76" transform="translate(64.000000, 88.000000)">
                    <mask id="mask-50" fill="white">
                        <use xlink:href="#path-49"></use>
                    </mask>
                    <g id="Clip-75"></g>
                    <polygon id="Fill-74" fill="#A85530" mask="url(#mask-50)" points="-7.0863 10.918 66.8537 -6.152 77.7927 41.227 3.8517 58.298"></polygon>
                </g>
                <g id="Group-79" transform="translate(62.000000, 86.000000)">
                    <mask id="mask-52" fill="white">
                        <use xlink:href="#path-51"></use>
                    </mask>
                    <g id="Clip-78"></g>
                    <polygon id="Fill-77" fill="#B67548" mask="url(#mask-52)" points="-7.2835 11.6924 69.5795 -6.0526 74.8615 16.8254 -2.0025 34.5704"></polygon>
                </g>
                <g id="Group-82" transform="translate(65.000000, 108.000000)">
                    <mask id="mask-54" fill="white">
                        <use xlink:href="#path-53"></use>
                    </mask>
                    <g id="Clip-81"></g>
                    <polygon id="Fill-80" fill="#725038" mask="url(#mask-54)" points="-5.3363 -2.7626 6.9467 -5.5986 9.7817 6.6824 -2.5013 9.5184"></polygon>
                </g>
                <g id="Group-85" transform="translate(123.000000, 89.000000)">
                    <mask id="mask-56" fill="white">
                        <use xlink:href="#path-55"></use>
                    </mask>
                    <g id="Clip-84"></g>
                    <polygon id="Fill-83" fill="#725038" mask="url(#mask-56)" points="-5.9818 -2.9658 6.3012 -5.8018 9.1372 6.4802 -3.1458 9.3162"></polygon>
                </g>
                <g id="Group-88" transform="translate(67.000000, 97.000000)">
                    <mask id="mask-58" fill="white">
                        <use xlink:href="#path-57"></use>
                    </mask>
                    <g id="Clip-87"></g>
                    <polygon id="Fill-86" fill="#B67548" mask="url(#mask-58)" points="-7.1829 11.462 66.7251 -5.601 71.9501 17.027 -1.9579 34.091"></polygon>
                </g>
                <g id="Group-91" transform="translate(70.000000, 119.000000)">
                    <mask id="mask-60" fill="white">
                        <use xlink:href="#path-59"></use>
                    </mask>
                    <g id="Clip-90"></g>
                    <polygon id="Fill-89" fill="#725038" mask="url(#mask-60)" points="-5.3607 -3.2285 6.8083 -6.0375 9.6433 6.2445 -2.5247 9.0535"></polygon>
                </g>
                <g id="Group-94" transform="translate(125.000000, 100.000000)">
                    <mask id="mask-62" fill="white">
                        <use xlink:href="#path-61"></use>
                    </mask>
                    <g id="Clip-93"></g>
                    <polygon id="Fill-92" fill="#725038" mask="url(#mask-62)" points="-5.6126 -2.5634 6.5564 -5.3724 9.3914 6.9096 -2.7766 9.7186"></polygon>
                </g>
                <g id="Group-97" transform="translate(72.000000, 109.000000)">
                    <mask id="mask-64" fill="white">
                        <use xlink:href="#path-63"></use>
                    </mask>
                    <g id="Clip-96"></g>
                    <polygon id="Fill-95" fill="#B67548" mask="url(#mask-64)" points="-7.0306 10.418 63.6194 -5.893 68.6874 16.059 -1.9636 32.369"></polygon>
                </g>
                <g id="Group-100" transform="translate(75.000000, 129.000000)">
                    <mask id="mask-66" fill="white">
                        <use xlink:href="#path-65"></use>
                    </mask>
                    <g id="Clip-99"></g>
                    <polygon id="Fill-98" fill="#725038" mask="url(#mask-66)" points="-5.472 -2.6474 6.575 -5.4284 9.379 6.7176 -2.668 9.4986"></polygon>
                </g>
                <g id="Group-103" transform="translate(127.000000, 112.000000)">
                    <mask id="mask-68" fill="white">
                        <use xlink:href="#path-67"></use>
                    </mask>
                    <g id="Clip-102"></g>
                    <polygon id="Fill-101" fill="#725038" mask="url(#mask-68)" points="-5.4798 -3.0595 6.5652 -5.8395 9.3702 6.3065 -2.6758 9.0875"></polygon>
                </g>
                <g id="Group-106" transform="translate(52.000000, 108.000000)">
                    <mask id="mask-70" fill="white">
                        <use xlink:href="#path-69"></use>
                    </mask>
                    <g id="Clip-105"></g>
                    <polygon id="Fill-104" fill="#903A1F" mask="url(#mask-70)" points="-8.7767 24.1856 122.7873 -6.1884 128.8283 19.9806 -2.7357 50.3546"></polygon>
                </g>
                <polygon id="Fill-107" fill="#903A1F" points="47.3832 132.6407 55.6532 168.4617 58.5872 167.7837 50.3172 131.9637"></polygon>
                <polygon id="Fill-108" fill="#903A1F" points="34.7364 152.8808 35.4144 155.8148 71.2344 147.5448 70.5574 144.6108"></polygon>
                <polygon id="Fill-109" fill="#903A1F" points="43.0803 165.5924 45.7493 166.9894 62.7943 134.4164 60.1253 133.0204"></polygon>
                <polygon id="Fill-110" fill="#903A1F" points="36.5517 141.5408 67.7267 161.0208 69.3247 158.4678 38.1477 138.9878"></polygon>
                <path d="M70.9977,145.9893 C73.2967,155.9453 67.0887,165.8793 57.1337,168.1773 C47.1777,170.4753 37.2437,164.2683 34.9447,154.3123 C32.6457,144.3563 38.8537,134.4223 48.8107,132.1243 C58.7657,129.8253 68.6987,136.0333 70.9977,145.9893 Z" id="Stroke-111" stroke="#424242" stroke-width="3"></path>
                <g id="Group-115" transform="translate(46.000000, 143.000000)">
                    <mask id="mask-72" fill="white">
                        <use xlink:href="#path-71"></use>
                    </mask>
                    <g id="Clip-114"></g>
                    <polygon id="Fill-113" fill="#B67548" mask="url(#mask-72)" points="-7.0931 -1.7636 15.7059 -7.0276 20.9689 15.7724 -1.8301 21.0364"></polygon>
                </g>
                <g id="Group-118" transform="translate(49.000000, 146.000000)">
                    <mask id="mask-74" fill="white">
                        <use xlink:href="#path-73"></use>
                    </mask>
                    <g id="Clip-117"></g>
                    <polygon id="Fill-116" fill="#8C4F24" mask="url(#mask-74)" points="-6.0853 -2.2587 10.1997 -6.0187 13.9607 10.2663 -2.3253 14.0263"></polygon>
                </g>
                <g id="Bucket" transform="translate(132.000000, 120.000000)">
                    <g id="Group-121" transform="translate(4.000000, 0.000000)">
                        <mask id="mask-76" fill="white">
                            <use xlink:href="#path-75"></use>
                        </mask>
                        <g id="Clip-120"></g>
                        <polygon id="Fill-119" fill="#4F302B" mask="url(#mask-76)" points="-4.547 24.595 21.365 24.595 21.365 -4.33 -4.547 -4.33"></polygon>
                    </g>
                    <g id="Group-124" transform="translate(19.000000, 0.000000)">
                        <mask id="mask-78" fill="white">
                            <use xlink:href="#path-77"></use>
                        </mask>
                        <g id="Clip-123"></g>
                        <polygon id="Fill-122" fill="#65413C" mask="url(#mask-78)" points="-4.635 24.595 21.276 24.595 21.276 -4.33 -4.635 -4.33"></polygon>
                    </g>
                    <g id="Group-127" transform="translate(2.000000, 12.000000)">
                        <mask id="mask-80" fill="white">
                            <use xlink:href="#path-79"></use>
                        </mask>
                        <g id="Clip-126"></g>
                        <polygon id="Fill-125" fill="#A3A2A3" mask="url(#mask-80)" points="-4.955 39 23.364 39 23.364 -4.422 -4.955 -4.422"></polygon>
                    </g>
                    <g id="Group-130" transform="translate(19.000000, 12.000000)">
                        <mask id="mask-82" fill="white">
                            <use xlink:href="#path-81"></use>
                        </mask>
                        <g id="Clip-129"></g>
                        <polygon id="Fill-128" fill="#B9B9B9" mask="url(#mask-82)" points="-4.635 39 23.684 39 23.684 -4.422 -4.635 -4.422"></polygon>
                    </g>
                    <g id="Group-133" transform="translate(0.000000, 10.000000)">
                        <mask id="mask-84" fill="white">
                            <use xlink:href="#path-83"></use>
                        </mask>
                        <g id="Clip-132"></g>
                        <polygon id="Fill-131" fill="#565656" mask="url(#mask-84)" points="-4.353 12.216 25.364 12.216 25.364 -4.867 -4.353 -4.867"></polygon>
                    </g>
                    <g id="Group-136" transform="translate(19.000000, 10.000000)">
                        <mask id="mask-86" fill="white">
                            <use xlink:href="#path-85"></use>
                        </mask>
                        <g id="Clip-135"></g>
                        <polygon id="Fill-134" fill="#6A6B6B" mask="url(#mask-86)" points="-4.635 12.216 25.082 12.216 25.082 -4.867 -4.635 -4.867"></polygon>
                    </g>
                </g>
                <g id="Shovel" transform="translate(264.000000, 56.000000)">
                    <g id="Group-139" transform="translate(0.000000, 69.000000)">
                        <mask id="mask-88" fill="white">
                            <use xlink:href="#path-87"></use>
                        </mask>
                        <g id="Clip-138"></g>
                        <polygon id="Fill-137" fill="#A3A2A3" mask="url(#mask-88)" points="4.5104 -7.5634 27.4654 -2.2634 16.1194 46.8816 -6.8356 41.5826"></polygon>
                    </g>
                    <g id="Group-142" transform="translate(11.000000, 70.000000)">
                        <mask id="mask-90" fill="white">
                            <use xlink:href="#path-89"></use>
                        </mask>
                        <g id="Clip-141"></g>
                        <polygon id="Fill-140" fill="#B9B9B9" mask="url(#mask-90)" points="5.7214 -5.5136 28.6774 -0.2136 17.3304 48.9334 -5.6256 43.6334"></polygon>
                    </g>
                    <g id="Group-145" transform="translate(21.000000, 12.000000)">
                        <mask id="mask-92" fill="white">
                            <use xlink:href="#path-91"></use>
                        </mask>
                        <g id="Clip-144"></g>
                        <polygon id="Fill-143" fill="#AC3F25" mask="url(#mask-92)" points="10.0124 -5.2031 22.4344 -2.3351 6.8664 65.0989 -5.5556 62.2319"></polygon>
                    </g>
                    <g id="Group-148" transform="translate(18.000000, 12.000000)">
                        <mask id="mask-94" fill="white">
                            <use xlink:href="#path-93"></use>
                        </mask>
                        <g id="Clip-147"></g>
                        <polygon id="Fill-146" fill="#903A1F" mask="url(#mask-94)" points="10.2077 -5.8583 22.7837 -2.9553 7.2157 64.4797 -5.3603 61.5767"></polygon>
                    </g>
                    <g id="Group-151" transform="translate(34.000000, 1.000000)">
                        <mask id="mask-96" fill="white">
                            <use xlink:href="#path-95"></use>
                        </mask>
                        <g id="Clip-150"></g>
                        <polygon id="Fill-149" fill="#EF4E48" mask="url(#mask-96)" points="-0.5452 -5.1347 16.1508 -1.2807 10.9418 21.2823 -5.7542 17.4273"></polygon>
                    </g>
                    <g id="Group-154" transform="translate(29.000000, 0.000000)">
                        <mask id="mask-98" fill="white">
                            <use xlink:href="#path-97"></use>
                        </mask>
                        <g id="Clip-153"></g>
                        <polygon id="Fill-152" fill="#D64140" mask="url(#mask-98)" points="-2.4691 -5.7392 14.2259 -1.8852 9.0169 20.6778 -7.6781 16.8228"></polygon>
                    </g>
                </g>
                <g id="Group-157" transform="translate(254.000000, 0.000000)">
                    <mask id="mask-100" fill="white">
                        <use xlink:href="#path-99"></use>
                    </mask>
                    <g id="Clip-156"></g>
                    <polygon id="Fill-155" fill="#EE7322" mask="url(#mask-100)" points="-5 45 45 45 45 -5 -5 -5"></polygon>
                </g>
            </g>
        </g>
    </g>
</svg>