<?xml version="1.0" encoding="UTF-8"?>
<svg width="325px" height="181px" viewBox="0 0 325 181" version="1.1" xmlns="http://www.w3.org/2000/svg" xmlns:xlink="http://www.w3.org/1999/xlink">
    <!-- Generator: Sketch 54.1 (76490) - https://sketchapp.com -->
    <title>Stage 2 Illustration</title>
    <desc>Created with Sketch.</desc>
    <defs>
        <polygon id="path-1" points="0.9037 0.7311 15.5997 0.7311 15.5997 74 0.9037 74"></polygon>
        <polygon id="path-3" points="0.4755 0.7311 15.1715 0.7311 15.1715 74 0.4755 74"></polygon>
        <polygon id="path-5" points="0.0468 0.7311 14.7428 0.7311 14.7428 74 0.0468 74"></polygon>
        <polygon id="path-7" points="0.6185 0.7311 15.3145 0.7311 15.3145 74 0.6185 74"></polygon>
        <polygon id="path-9" points="0.1903 0.7311 14.8863 0.7311 14.8863 74 0.1903 74"></polygon>
        <polygon id="path-11" points="0.7621 0.7311 15.4581 0.7311 15.4581 74 0.7621 74"></polygon>
    </defs>
    <g id="All-of-it" stroke="none" stroke-width="1" fill="none" fill-rule="evenodd">
        <g id="Progress/Module1-Copy" transform="translate(-17.000000, -83.000000)">
            <g id="Stage-2-Illustration" transform="translate(17.000000, 83.000000)">
                <g id="Fence" opacity="0.523414249" transform="translate(83.000000, 91.000000)">
                    <polygon id="Fill-1" fill="#A46B56" points="0.174 29.7576 159.204 29.7576 159.204 20.0316 0.174 20.0316"></polygon>
                    <polygon id="Fill-2" fill="#A46B56" points="0 59.2176 159.03 59.2176 159.03 49.4906 0 49.4906"></polygon>
                    <polygon id="Fill-3" fill="#C3916F" points="8.3322 10.1985 8.3322 74.2685 23.0282 74.2685 23.0282 10.1985 15.6802 1.0005"></polygon>
                    <g id="Group-50" transform="translate(13.000000, 0.268600)">
                        <path d="M5.1646,24.15 C5.1646,25.522 4.0526,26.634 2.6796,26.634 C1.3076,26.634 0.1956,25.522 0.1956,24.15 C0.1956,22.777 1.3076,21.665 2.6796,21.665 C4.0526,21.665 5.1646,22.777 5.1646,24.15" id="Fill-4" fill="#725038"></path>
                        <path d="M5.1646,54.0856 C5.1646,55.4576 4.0526,56.5696 2.6796,56.5696 C1.3076,56.5696 0.1956,55.4576 0.1956,54.0856 C0.1956,52.7136 1.3076,51.6006 2.6796,51.6006 C4.0526,51.6006 5.1646,52.7136 5.1646,54.0856" id="Fill-6" fill="#725038"></path>
                        <g id="Group-10" transform="translate(16.000000, 0.000000)">
                            <mask id="mask-2" fill="white">
                                <use xlink:href="#path-1"></use>
                            </mask>
                            <g id="Clip-9"></g>
                            <polygon id="Fill-8" fill="#C3916F" mask="url(#mask-2)" points="15.5997 74.0001 0.9037 74.0001 0.9037 9.9301 8.2517 0.7311 15.5997 9.9301"></polygon>
                        </g>
                        <path d="M26.7364,24.15 C26.7364,25.522 25.6234,26.634 24.2514,26.634 C22.8794,26.634 21.7674,25.522 21.7674,24.15 C21.7674,22.777 22.8794,21.665 24.2514,21.665 C25.6234,21.665 26.7364,22.777 26.7364,24.15" id="Fill-11" fill="#725038"></path>
                        <path d="M26.7364,54.0856 C26.7364,55.4576 25.6234,56.5696 24.2514,56.5696 C22.8794,56.5696 21.7674,55.4576 21.7674,54.0856 C21.7674,52.7136 22.8794,51.6006 24.2514,51.6006 C25.6234,51.6006 26.7364,52.7136 26.7364,54.0856" id="Fill-13" fill="#725038"></path>
                        <g id="Group-17" transform="translate(38.000000, 0.000000)">
                            <mask id="mask-4" fill="white">
                                <use xlink:href="#path-3"></use>
                            </mask>
                            <g id="Clip-16"></g>
                            <polygon id="Fill-15" fill="#C3916F" mask="url(#mask-4)" points="15.1715 74.0001 0.4755 74.0001 0.4755 9.9301 7.8235 0.7311 15.1715 9.9301"></polygon>
                        </g>
                        <path d="M48.3077,24.15 C48.3077,25.522 47.1957,26.634 45.8237,26.634 C44.4517,26.634 43.3387,25.522 43.3387,24.15 C43.3387,22.777 44.4517,21.665 45.8237,21.665 C47.1957,21.665 48.3077,22.777 48.3077,24.15" id="Fill-18" fill="#725038"></path>
                        <path d="M48.3077,54.0856 C48.3077,55.4576 47.1957,56.5696 45.8237,56.5696 C44.4517,56.5696 43.3387,55.4576 43.3387,54.0856 C43.3387,52.7136 44.4517,51.6006 45.8237,51.6006 C47.1957,51.6006 48.3077,52.7136 48.3077,54.0856" id="Fill-20" fill="#725038"></path>
                        <g id="Group-24" transform="translate(60.000000, 0.000000)">
                            <mask id="mask-6" fill="white">
                                <use xlink:href="#path-5"></use>
                            </mask>
                            <g id="Clip-23"></g>
                            <polygon id="Fill-22" fill="#C3916F" mask="url(#mask-6)" points="14.7428 74.0001 0.0468 74.0001 0.0468 9.9301 7.3948 0.7311 14.7428 9.9301"></polygon>
                        </g>
                        <path d="M69.8795,24.15 C69.8795,25.522 68.7675,26.634 67.3955,26.634 C66.0225,26.634 64.9105,25.522 64.9105,24.15 C64.9105,22.777 66.0225,21.665 67.3955,21.665 C68.7675,21.665 69.8795,22.777 69.8795,24.15" id="Fill-25" fill="#725038"></path>
                        <path d="M69.8795,54.0856 C69.8795,55.4576 68.7675,56.5696 67.3955,56.5696 C66.0225,56.5696 64.9105,55.4576 64.9105,54.0856 C64.9105,52.7136 66.0225,51.6006 67.3955,51.6006 C68.7675,51.6006 69.8795,52.7136 69.8795,54.0856" id="Fill-27" fill="#725038"></path>
                        <g id="Group-31" transform="translate(81.000000, 0.000000)">
                            <mask id="mask-8" fill="white">
                                <use xlink:href="#path-7"></use>
                            </mask>
                            <g id="Clip-30"></g>
                            <polygon id="Fill-29" fill="#C3916F" mask="url(#mask-8)" points="15.3145 74.0001 0.6185 74.0001 0.6185 9.9301 7.9665 0.7311 15.3145 9.9301"></polygon>
                        </g>
                        <path d="M91.4513,24.15 C91.4513,25.522 90.3393,26.634 88.9663,26.634 C87.5943,26.634 86.4823,25.522 86.4823,24.15 C86.4823,22.777 87.5943,21.665 88.9663,21.665 C90.3393,21.665 91.4513,22.777 91.4513,24.15" id="Fill-32" fill="#725038"></path>
                        <path d="M91.4513,54.0856 C91.4513,55.4576 90.3393,56.5696 88.9663,56.5696 C87.5943,56.5696 86.4823,55.4576 86.4823,54.0856 C86.4823,52.7136 87.5943,51.6006 88.9663,51.6006 C90.3393,51.6006 91.4513,52.7136 91.4513,54.0856" id="Fill-34" fill="#725038"></path>
                        <g id="Group-38" transform="translate(103.000000, 0.000000)">
                            <mask id="mask-10" fill="white">
                                <use xlink:href="#path-9"></use>
                            </mask>
                            <g id="Clip-37"></g>
                            <polygon id="Fill-36" fill="#C3916F" mask="url(#mask-10)" points="14.8863 74.0001 0.1903 74.0001 0.1903 9.9301 7.5383 0.7311 14.8863 9.9301"></polygon>
                        </g>
                        <path d="M113.0226,24.15 C113.0226,25.522 111.9106,26.634 110.5386,26.634 C109.1666,26.634 108.0536,25.522 108.0536,24.15 C108.0536,22.777 109.1666,21.665 110.5386,21.665 C111.9106,21.665 113.0226,22.777 113.0226,24.15" id="Fill-39" fill="#725038"></path>
                        <path d="M113.0226,54.0856 C113.0226,55.4576 111.9106,56.5696 110.5386,56.5696 C109.1666,56.5696 108.0536,55.4576 108.0536,54.0856 C108.0536,52.7136 109.1666,51.6006 110.5386,51.6006 C111.9106,51.6006 113.0226,52.7136 113.0226,54.0856" id="Fill-41" fill="#725038"></path>
                        <g id="Group-45" transform="translate(124.000000, 0.000000)">
                            <mask id="mask-12" fill="white">
                                <use xlink:href="#path-11"></use>
                            </mask>
                            <g id="Clip-44"></g>
                            <polygon id="Fill-43" fill="#C3916F" mask="url(#mask-12)" points="15.4581 74.0001 0.7621 74.0001 0.7621 9.9301 8.1101 0.7311 15.4581 9.9301"></polygon>
                        </g>
                        <path d="M134.5943,24.15 C134.5943,25.522 133.4823,26.634 132.1103,26.634 C130.7383,26.634 129.6253,25.522 129.6253,24.15 C129.6253,22.777 130.7383,21.665 132.1103,21.665 C133.4823,21.665 134.5943,22.777 134.5943,24.15" id="Fill-46" fill="#725038"></path>
                        <path d="M134.5943,54.0856 C134.5943,55.4576 133.4823,56.5696 132.1103,56.5696 C130.7383,56.5696 129.6253,55.4576 129.6253,54.0856 C129.6253,52.7136 130.7383,51.6006 132.1103,51.6006 C133.4823,51.6006 134.5943,52.7136 134.5943,54.0856" id="Fill-48" fill="#725038"></path>
                    </g>
                </g>
                <rect id="Ground" fill="#B67649" x="0" y="173" width="325" height="8"></rect>
                <path d="M9,159 L316,159 C320.970563,159 325,163.029437 325,168 L325,173 L0,173 L0,168 C-6.08718376e-16,163.029437 4.02943725,159 9,159 Z" id="Grass" fill="#459E54"></path>
                <rect id="Rectangle" fill="#459E54" x="147" y="166" width="35" height="7"></rect>
                <rect id="Rectangle-Copy" fill="#B67649" x="147" y="173" width="35" height="8"></rect>
                <circle id="Sun" fill="#F07217" cx="274" cy="20" r="20"></circle>
                <g id="Cloud" transform="translate(35.000000, 0.000000)">
                    <path d="M64.9230046,17.2778472 C65.766436,17.0961909 66.4673372,17 67,17 C74.7319865,17 81,23.2680135 81,31 C81,38.7319865 74.7319865,45 67,45 C61.8453423,45 44.8743951,45 16.0871582,45 C16.0871582,44.9813575 16.0874092,44.9626422 16.0879102,44.9438544 C7.08325686,44.2248598 -2.84217094e-14,36.6896216 -2.84217094e-14,27.5 C-2.84217094e-14,17.8350169 7.83501688,10 17.5,10 C21.3698778,10 24.9463724,11.2561232 27.8440007,13.3828868 C30.2393688,5.63161142 37.4620177,0 46,0 C55.912911,0 64.0527445,7.59144766 64.9230046,17.2778472 Z" id="Combined-Shape" fill="#F4F4F4"></path>
                    <path d="M8.15334719,42.2976023 C3.25337849,39.1961277 -2.52242671e-13,33.7279975 -2.52242671e-13,27.5 C-2.52242671e-13,17.8350169 7.83501688,10 17.5,10 C21.3698778,10 24.9463724,11.2561232 27.8440007,13.3828868 C30.2393688,5.63161142 37.4620177,-1.10134124e-13 46,-1.10134124e-13 C49.8874542,-1.10134124e-13 53.5022267,1.16748886 56.5128217,3.17097072 C44.3532589,2.66069874 34.0004978,8.44080744 30.6875,19 C15.4281342,6.38241187 -1.20291952,26.5090602 8.15334719,42.2976023 Z" id="Combined-Shape" fill="#E5E4E4"></path>
                </g>
                <g id="Cloud" transform="translate(212.000000, 12.000000)">
                    <path d="M47.2895959,12.6704213 C47.9039472,12.5372066 48.4144802,12.4666667 48.8024691,12.4666667 C54.4344099,12.4666667 59,17.0632099 59,22.7333333 C59,28.4034568 54.4344099,33 48.8024691,33 C45.0478419,33 32.6862878,33 11.7178066,33 C11.7178066,32.9863289 11.7179894,32.9726043 11.7183543,32.9588266 C5.15940932,32.4315639 -4.54747351e-13,26.9057225 -4.54747351e-13,20.1666667 C-4.54747351e-13,13.0790124 5.7069876,7.33333333 12.7469136,7.33333333 C15.5657135,7.33333333 18.1708144,8.25449037 20.2814326,9.81411696 C22.0262069,4.12984837 27.2871487,0 33.5061728,0 C40.7266883,0 46.6557028,5.56706162 47.2895959,12.6704213 Z" id="Combined-Shape" fill="#F4F4F4"></path>
                    <path d="M5.91524586,31 C2.36032309,28.7269228 -4.8316906e-13,24.7193189 -4.8316906e-13,20.1548067 C-4.8316906e-13,13.0713207 5.68429751,7.32902063 12.6962338,7.32902063 C15.5038266,7.32902063 18.0985701,8.24963593 20.2007968,9.80834531 C21.9386342,4.12741963 27.1786593,0 33.3729575,0 C36.193302,0 38.8158161,0.855654996 41,2.32401099 C32.1782484,1.95003159 24.6673297,6.18628519 22.2637529,13.9251392 C11.1930971,4.67768283 -0.872717004,19.4285449 5.91524586,31 Z" id="Combined-Shape" fill="#E5E4E4"></path>
                </g>
            </g>
        </g>
    </g>
</svg>