<svg xmlns="http://www.w3.org/2000/svg" viewBox="0 0 56.91 56.91"><defs><style>.cls-1{fill:none;stroke:#010101;stroke-miterlimit:10;stroke-width:1.5px;}</style></defs><title>Asset 37</title><g id="Layer_2" data-name="Layer 2"><g id="International_Money" data-name="International Money"><path class="cls-1" d="M56.16,28.46a27.86,27.86,0,0,1-27.7,27.7A27,27,0,0,1,.76,28.46a30.35,30.35,0,0,1,6.81-18.2C8.31,9.41,16.33.5,28.46.76,41.63,1,56.16,12.08,56.16,28.46Z"/><path class="cls-1" d="M9.46,8.52c1,1.44-.7,9.15,5.33,8.84,5.26,0,8.59,1.82,8.92,6.17-.52,4.92-4.78,8.18-1.27,11.35,9.54,6.58,6.75,16.25-2.32,20"/><path class="cls-1" d="M54.24,18.53c0,4-10.93,3.15-12.42,5.89-1.66,3-2.4,9.29-5,9.29-3.7,0-2.1-6.89-2.1-12.44-.46-3.91-9.32-3.23-4.51-11.56,2.27-4.29,1.31-7,1.31-8.7"/><path class="cls-1" d="M39.69,53.69c-2.92-1.14-6.32-4.35-4.49-9.54,2.66-5.65,8.18-3.08,7.6-7.94-.24-3.41,2.4-4.72,5.24-4.93a13.14,13.14,0,0,1,7.44,2.43"/></g></g></svg>