<svg xmlns="http://www.w3.org/2000/svg" viewBox="0 0 43.71 43.03"><defs><style>.cls-1{fill:none;stroke:#010101;stroke-miterlimit:10;stroke-width:1.5px;}</style></defs><title>Thumbs up (2)</title><g id="Layer_2" data-name="Layer 2"><g id="Pros"><g id="Thumbs_up" data-name="Thumbs up"><path class="cls-1" d="M39.46,18.3H28.06l-.07,0-.15-.12-.07-.07c-1-1.15.21-2.75,1.47-5.43A15,15,0,0,0,30,2.94h0a2.92,2.92,0,0,0-5.39-.66h0a35.63,35.63,0,0,0-1.53,5.24h0c-1.32,4.07-4.42,7.73-6.79,10.78l-1.7,2.24a3.46,3.46,0,0,0-.69,2.08V38.79a2.22,2.22,0,0,0,1.56,2.12L19.6,42.2a3.1,3.1,0,0,0,.58.08H33.72a3.49,3.49,0,0,0,3.5-3.5h0a3.49,3.49,0,0,0-.29-1.41h0a3.51,3.51,0,0,0,2.86-3.44h0a3.47,3.47,0,0,0-1.21-2.64h0a3.5,3.5,0,0,0,3-3.46h0a3.48,3.48,0,0,0-1.2-2.64h0A3.5,3.5,0,0,0,43,21.8h0A3.5,3.5,0,0,0,39.46,18.3Z"/><rect class="cls-1" x="0.75" y="19.33" width="13.16" height="22.95" rx="2.63"/></g></g></g></svg>