<svg xmlns="http://www.w3.org/2000/svg" viewBox="0 0 43.71 43.03"><defs><style>.cls-1{fill:none;stroke:#010101;stroke-miterlimit:10;stroke-width:1.5px;}</style></defs><title>Thumbs up</title><g id="Layer_2" data-name="Layer 2"><g id="Cons"><g id="Thumbs_up" data-name="Thumbs up"><path class="cls-1" d="M39.46,24.73H28.06a.11.11,0,0,0-.07,0l-.15.12-.07.07c-1,1.14.21,2.74,1.47,5.43A15,15,0,0,1,30,40.09h0a2.91,2.91,0,0,1-5.39.66h0a35.63,35.63,0,0,1-1.53-5.24h0c-1.32-4.06-4.42-7.73-6.79-10.78l-1.7-2.24a3.46,3.46,0,0,1-.69-2.08V4.25a2.22,2.22,0,0,1,1.56-2.12L19.6.84a2.48,2.48,0,0,1,.58-.09H33.72a3.5,3.5,0,0,1,3.5,3.5h0a3.49,3.49,0,0,1-.29,1.41h0A3.51,3.51,0,0,1,39.79,9.1h0a3.5,3.5,0,0,1-1.21,2.65h0a3.5,3.5,0,0,1,3,3.46h0a3.46,3.46,0,0,1-1.2,2.63h0A3.51,3.51,0,0,1,43,21.23h0A3.5,3.5,0,0,1,39.46,24.73Z"/><rect class="cls-1" x="0.75" y="0.75" width="13.16" height="22.95" rx="2.63"/></g></g></g></svg>