<svg xmlns="http://www.w3.org/2000/svg" viewBox="0 0 64.22 57.68"><defs><style>.cls-1{fill:#010101;}.cls-2,.cls-3{fill:none;stroke:#010101;stroke-miterlimit:10;stroke-width:1.5px;}.cls-3{stroke-linecap:round;}</style></defs><title>Wallet (2)</title><g id="Layer_2" data-name="Layer 2"><g id="Mobile_Wallet" data-name="Mobile Wallet"><g id="Wallet"><path class="cls-1" d="M42.92,1.5H43a3.25,3.25,0,0,1,.46,1.1l3.13,11.25.31,1.09h5.45a2.19,2.19,0,0,1,2.19,2.19V28.9H47.19a7.4,7.4,0,1,0,0,14.8h7.35V54a2.19,2.19,0,0,1-2.19,2.18H3.69A2.19,2.19,0,0,1,1.5,54V17.13a2.19,2.19,0,0,1,2.19-2.19h6.58L9.74,13,9,10.45l0-.06,0-.07a2,2,0,0,1-.2-.82S9,9.26,9.94,9.1H10L41.71,1.74h.07a5.62,5.62,0,0,1,1.14-.22h0m0-1.5a5.87,5.87,0,0,0-1.55.28L9.68,7.62C7.37,8,6.88,9,7.57,10.85l.73,2.59H3.69A3.69,3.69,0,0,0,0,17.13V54a3.69,3.69,0,0,0,3.69,3.68H52.35A3.69,3.69,0,0,0,56,54V42.2H47.19a5.9,5.9,0,0,1-5.9-5.9h0a5.9,5.9,0,0,1,5.9-5.9H56V17.13a3.69,3.69,0,0,0-3.69-3.69H48L44.91,2.2c-.47-1.6-1-2.2-2-2.2Z"/><path class="cls-1" d="M46.94,34.85a1.7,1.7,0,1,1-1.69,1.7,1.7,1.7,0,0,1,1.69-1.7m0-1.5a3.2,3.2,0,1,0,3.2,3.2,3.19,3.19,0,0,0-3.2-3.2Z"/><path class="cls-2" d="M56,29.65h2a.53.53,0,0,1,.51.54v12.1a.64.64,0,0,1-.61.66H56"/><path class="cls-3" d="M60.17,15.24a4.53,4.53,0,0,0-1.75-3.64,4.52,4.52,0,0,0-3.85-1.2"/><path class="cls-3" d="M63.46,13.83a6.6,6.6,0,0,0-2.9-5.4,6.63,6.63,0,0,0-6-1.26"/><line class="cls-3" x1="5.48" y1="19.65" x2="51.56" y2="19.65"/><line class="cls-3" x1="9.19" y1="13.83" x2="10.72" y2="19.65"/><line class="cls-3" x1="47.34" y1="13.62" x2="48.87" y2="19.44"/></g></g></g></svg>