<svg xmlns="http://www.w3.org/2000/svg" viewBox="0 0 67.47 54.36"><defs><style>.cls-1,.cls-2{fill:none;stroke:#000;stroke-linejoin:round;stroke-width:1.5px;}.cls-1{fill-rule:evenodd;}.cls-3{fill:#231f20;stroke:#010101;stroke-miterlimit:10;stroke-width:0.5px;}</style></defs><title>Budgeting icon</title><g id="Layer_2" data-name="Layer 2"><g id="Budgeting"><g id="Budgeting_icon" data-name="Budgeting icon"><g id="Pencil"><path class="cls-1" d="M51.83,48.7l-5.26,4.36a.36.36,0,0,1-.58-.25l-.35-6.59a1,1,0,0,1,.09-.45L57,20.09a1.26,1.26,0,0,1,1.59-.77l4.15,1.82a1.18,1.18,0,0,1,.49,1.59Z"/><line class="cls-2" x1="54.81" y1="24.32" x2="61.01" y2="27.03"/><line class="cls-2" x1="45.5" y1="45.72" x2="51.7" y2="48.43"/></g><path class="cls-1" d="M33.74,53.61s-9.41-4.2-16.5-4.44c-6-.21-12,2.15-13.68,2.36a2.71,2.71,0,0,1-1.13,0A2.34,2.34,0,0,1,.75,49.12V5.62C.75,4.14,1.91,3.7,3.51,3.1A32.39,32.39,0,0,1,17.24.82c8.38.32,16.5,5,16.5,5Z"/><path class="cls-3" d="M20.34,30.6a3.32,3.32,0,0,1-1.23,1.11,4.42,4.42,0,0,1-1.87.49v2.32a.37.37,0,0,1-.09.25.36.36,0,0,1-.52,0,.37.37,0,0,1-.1-.25V32.21a5.27,5.27,0,0,1-2.08-.52,6.89,6.89,0,0,1-1.8-1.34.36.36,0,0,1-.11-.26.38.38,0,0,1,.13-.28.35.35,0,0,1,.26-.13.41.41,0,0,1,.31.16,4.67,4.67,0,0,0,3.29,1.65V26a15,15,0,0,1-1.8-.79,3.26,3.26,0,0,1-1.14-1,2.83,2.83,0,0,1-.46-1.68,2.78,2.78,0,0,1,.92-2.09,4,4,0,0,1,2.48-1V17.85a.37.37,0,0,1,.1-.25.36.36,0,0,1,.52,0,.37.37,0,0,1,.09.25v1.6a5.05,5.05,0,0,1,1.87.41,3.57,3.57,0,0,1,1.4,1,.85.85,0,0,1,.17.37.33.33,0,0,1-.13.26.42.42,0,0,1-.29.11.28.28,0,0,1-.23-.1,3.44,3.44,0,0,0-1.19-1,4.26,4.26,0,0,0-1.6-.42v5.29a13.14,13.14,0,0,1,1.87.79,3.28,3.28,0,0,1,1.18,1.08,3.2,3.2,0,0,1,.48,1.84A2.61,2.61,0,0,1,20.34,30.6Zm-5.75-6.48a6.59,6.59,0,0,0,1.94,1.05v-5a3.43,3.43,0,0,0-1.9.75,2,2,0,0,0-.74,1.61A2,2,0,0,0,14.59,24.12Zm4.65,6.63A2.06,2.06,0,0,0,20,29.11a2.13,2.13,0,0,0-.73-1.7,6.83,6.83,0,0,0-2-1.1v5.18A3.44,3.44,0,0,0,19.24,30.75Z"/><path class="cls-1" d="M51.91,49.17c5.42.21,10.47,2.17,12,2.36a2.76,2.76,0,0,0,1.14,0,2.34,2.34,0,0,0,1.67-2.38V5.62c0-1.48-1.16-1.92-2.75-2.52A32.46,32.46,0,0,0,50.23.82c-8.38.32-16.49,5-16.49,5V53.61A66.71,66.71,0,0,1,45.3,49.82"/><path class="cls-1" d="M51.28,49.15l.63,0"/><path class="cls-1" d="M45.3,49.82l.53-.1"/></g></g></g></svg>