<svg xmlns="http://www.w3.org/2000/svg" viewBox="0 0 45.02 45.02"><defs><style>.cls-1{fill:none;stroke:#000;stroke-width:1.5px;}.cls-1,.cls-2{stroke-miterlimit:10;}.cls-2{fill:#231f20;stroke:#010101;stroke-width:0.25px;}</style></defs><title>Coin</title><g id="Layer_2" data-name="Layer 2"><g id="Digital_Currency" data-name="Digital Currency"><g id="Coin"><circle class="cls-1" cx="22.51" cy="22.51" r="21.76"/><path class="cls-2" d="M27.93,29.64a4.75,4.75,0,0,1-1.76,1.58,6.05,6.05,0,0,1-2.66.7v3.32a.52.52,0,0,1-.14.35.48.48,0,0,1-.37.15.5.5,0,0,1-.37-.15.51.51,0,0,1-.13-.35v-3.3a7.56,7.56,0,0,1-3-.74A9.72,9.72,0,0,1,17,29.28a.5.5,0,0,1-.15-.38.57.57,0,0,1,.17-.39.56.56,0,0,1,.38-.19.58.58,0,0,1,.43.23,6.72,6.72,0,0,0,2.13,1.67,6.44,6.44,0,0,0,2.59.69V23.13A23,23,0,0,1,19.92,22a4.55,4.55,0,0,1-1.63-1.46,4.05,4.05,0,0,1-.66-2.4,4,4,0,0,1,1.32-3,5.65,5.65,0,0,1,3.55-1.42V11.42a.51.51,0,0,1,.13-.35.5.5,0,0,1,.37-.15.48.48,0,0,1,.37.15.52.52,0,0,1,.14.35v2.29a7.31,7.31,0,0,1,2.67.59,5,5,0,0,1,2,1.48,1.12,1.12,0,0,1,.25.53.47.47,0,0,1-.19.37.6.6,0,0,1-.41.17.38.38,0,0,1-.33-.16,4.93,4.93,0,0,0-1.7-1.38,5.91,5.91,0,0,0-2.28-.59v7.55a20.32,20.32,0,0,1,2.66,1.12,4.92,4.92,0,0,1,1.7,1.55,4.61,4.61,0,0,1,.68,2.62A3.78,3.78,0,0,1,27.93,29.64Zm-8.21-9.26a9.19,9.19,0,0,0,2.78,1.51V14.74a5,5,0,0,0-2.73,1.07,2.87,2.87,0,0,0-1.05,2.3A2.82,2.82,0,0,0,19.72,20.38Zm6.64,9.47a2.92,2.92,0,0,0,1.1-2.34,3.07,3.07,0,0,0-1-2.43,9.86,9.86,0,0,0-2.91-1.57v7.4A4.9,4.9,0,0,0,26.36,29.85Z"/></g></g></g></svg>