<svg xmlns="http://www.w3.org/2000/svg" viewBox="0 0 52.66 58.44"><defs><style>.cls-1,.cls-2{fill:none;stroke:#231f20;stroke-linecap:round;stroke-width:1.5px;}.cls-1{stroke-miterlimit:10;}.cls-2{stroke-linejoin:round;}</style></defs><title>Umbrella</title><g id="Layer_2" data-name="Layer 2"><g id="Insurance"><g id="Umbrella"><path class="cls-1" d="M24.49,24.13s0,24.2,0,25.36a4,4,0,0,1-7.68,1.32,2.08,2.08,0,0,0-2-1.32h0a2.15,2.15,0,0,0-2,2.9A8.21,8.21,0,0,0,21,57.68a8.4,8.4,0,0,0,7.65-8.47V23.8"/><path class="cls-2" d="M7,22.27a7.08,7.08,0,0,1,6.39,4,7.07,7.07,0,0,1,12.79,0h.15A7.08,7.08,0,0,1,39,26a7.07,7.07,0,0,1,12.89.33h0A25.58,25.58,0,0,0,.75,26.09,7.08,7.08,0,0,1,7,22.27Z"/></g></g></g></svg>