<svg xmlns="http://www.w3.org/2000/svg" viewBox="0 0 46.32 60.11"><defs><style>.cls-1{fill:#fff;}.cls-2{fill:#010101;}.cls-3{fill:none;stroke-width:1.5px;}.cls-3,.cls-4{stroke:#010101;stroke-miterlimit:10;}.cls-4{fill:#231f20;stroke-width:0.5px;}</style></defs><title>Investments</title><g id="Layer_2" data-name="Layer 2"><g id="Investments"><g id="Investments-2" data-name="Investments"><circle class="cls-1" cx="23.19" cy="20" r="19.25"/><path class="cls-2" d="M23.19,1.5A18.51,18.51,0,1,1,4.68,20,18.52,18.52,0,0,1,23.19,1.5m0-1.5a20,20,0,1,0,20,20,20,20,0,0,0-20-20Z"/><path class="cls-1" d="M14.81,59.36a14.17,14.17,0,0,1-14-12.47.72.72,0,0,1,.35-.72,14.24,14.24,0,0,1,7.24-2A14.19,14.19,0,0,1,22.4,56.66a.73.73,0,0,1-.35.72,14.23,14.23,0,0,1-7.24,2Z"/><path class="cls-2" d="M8.35,44.93a13.3,13.3,0,0,1,5.92,1.39,13.44,13.44,0,0,1,7.4,10.41A13.43,13.43,0,0,1,1.49,46.81a13.48,13.48,0,0,1,6.86-1.88m0-1.5A15,15,0,0,0,.73,45.52,1.49,1.49,0,0,0,0,47a14.93,14.93,0,0,0,14.8,13.13A15.06,15.06,0,0,0,22.43,58a1.5,1.5,0,0,0,.72-1.47A14.93,14.93,0,0,0,8.35,43.43Z"/><path class="cls-1" d="M31.55,59.28A14.29,14.29,0,0,1,24,57.1a.73.73,0,0,1-.33-.73,14.18,14.18,0,0,1,21.56-9.93.77.77,0,0,1,.34.74,14.19,14.19,0,0,1-14,12.1Z"/><path class="cls-2" d="M37.67,45h0a13.5,13.5,0,0,1,7.15,2A13.43,13.43,0,0,1,31.55,58.53a13.57,13.57,0,0,1-7.15-2.05,13.39,13.39,0,0,1,7.67-10.23A13.24,13.24,0,0,1,37.67,45m0-1.5A14.93,14.93,0,0,0,22.92,56.26a1.49,1.49,0,0,0,.68,1.48,15,15,0,0,0,8,2.29A14.93,14.93,0,0,0,46.3,47.29a1.48,1.48,0,0,0-.68-1.48,15,15,0,0,0-8-2.29Z"/><line class="cls-3" x1="23.07" y1="40.01" x2="23.07" y2="57.57"/><path class="cls-4" d="M27.23,26a3.73,3.73,0,0,1-1.35,1.22,4.89,4.89,0,0,1-2.05.53v2.55a.41.41,0,0,1-.11.28.41.41,0,0,1-.56,0,.41.41,0,0,1-.11-.28V27.74a5.9,5.9,0,0,1-2.29-.57,7.37,7.37,0,0,1-2-1.47.41.41,0,0,1-.12-.3.44.44,0,0,1,.13-.3.4.4,0,0,1,.3-.14.45.45,0,0,1,.33.17,5.32,5.32,0,0,0,1.63,1.29,5.11,5.11,0,0,0,2,.52V21a18.82,18.82,0,0,1-2-.86A3.62,3.62,0,0,1,19.82,19a3.17,3.17,0,0,1-.51-1.86,3,3,0,0,1,1-2.29,4.4,4.4,0,0,1,2.73-1.1V12a.4.4,0,0,1,.11-.27.39.39,0,0,1,.56,0,.4.4,0,0,1,.11.27v1.76a5.52,5.52,0,0,1,2.06.45,3.79,3.79,0,0,1,1.52,1.14.87.87,0,0,1,.2.41.35.35,0,0,1-.15.28.44.44,0,0,1-.32.13.3.3,0,0,1-.25-.12A3.72,3.72,0,0,0,25.58,15a4.58,4.58,0,0,0-1.75-.46V20.3a15.37,15.37,0,0,1,2.05.87,3.66,3.66,0,0,1,1.3,1.18,3.54,3.54,0,0,1,.53,2A2.88,2.88,0,0,1,27.23,26Zm-6.31-7.12A7.24,7.24,0,0,0,23.05,20v-5.5a3.87,3.87,0,0,0-2.09.82,2.22,2.22,0,0,0-.81,1.77A2.17,2.17,0,0,0,20.92,18.85ZM26,26.13a2.23,2.23,0,0,0,.85-1.8,2.37,2.37,0,0,0-.8-1.87,7.81,7.81,0,0,0-2.24-1.21v5.69A3.64,3.64,0,0,0,26,26.13Z"/></g></g></g></svg>