<svg xmlns="http://www.w3.org/2000/svg" viewBox="0 0 48.87 56.77"><defs><style>.cls-1,.cls-4{fill:none;}.cls-1,.cls-3,.cls-4{stroke:#010101;stroke-miterlimit:10;stroke-width:1.5px;}.cls-2,.cls-3{fill:#010101;}.cls-3,.cls-4{stroke-linecap:round;}</style></defs><title>Tax Doc</title><g id="Layer_2" data-name="Layer 2"><g id="Taxes"><g id="Tax_Doc" data-name="Tax Doc"><path class="cls-1" d="M48.12,20.77V52.9A3.12,3.12,0,0,1,45,56H3.87A3.12,3.12,0,0,1,.75,52.9v-49A3.12,3.12,0,0,1,3.87.75H31.46a1.55,1.55,0,0,1,1.19.56l15,18.2A2,2,0,0,1,48.12,20.77Z"/><path class="cls-1" d="M31.4.85v17.2a2.12,2.12,0,0,0,2.12,2.13H47.73"/><path class="cls-2" d="M24,23.86a8.89,8.89,0,1,1-8.89,8.89A8.9,8.9,0,0,1,24,23.86m0-1.5A10.39,10.39,0,1,0,34.41,32.75,10.39,10.39,0,0,0,24,22.36Z"/><line class="cls-3" x1="28.28" y1="27.86" x2="19.19" y2="38.77"/><ellipse class="cls-4" cx="20.84" cy="30.09" rx="1.47" ry="1.51"/><ellipse class="cls-4" cx="26.66" cy="36.53" rx="1.47" ry="1.51"/></g></g></g></svg>