<svg height="45" viewBox="0 0 81 45" width="81" xmlns="http://www.w3.org/2000/svg"><g fill="none" fill-rule="evenodd"><path d="m64.9230046 17.2778472c.8434314-.1816563 1.5443326-.2778472 2.0769954-.2778472 7.7319865 0 14 6.2680135 14 14s-6.2680135 14-14 14c-5.1546577 0-22.1256049 0-50.9128418 0 0-.0186425.000251-.0373578.000752-.0561456-9.00465334-.7189946-16.0879102-8.2542328-16.0879102-17.4438544 0-9.6649831 7.83501688-17.5 17.5-17.5 3.8698778 0 7.4463724 1.2561232 10.3440007 3.3828868 2.3953681-7.75127538 9.618017-13.3828868 18.1559993-13.3828868 9.912911 0 18.0527445 7.59144766 18.9230046 17.2778472z" fill="#f4f4f4"/><path d="m8.15334719 42.2976023c-4.8999687-3.1014746-8.15334719-8.5696048-8.15334719-14.7976023 0-9.6649831 7.83501688-17.5 17.5-17.5 3.8698778 0 7.4463724 1.2561232 10.3440007 3.3828868 2.3953681-7.75127538 9.618017-13.3828868 18.1559993-13.3828868 3.8874542 0 7.5022267 1.16748886 10.5128217 3.17097072-12.1595628-.51027198-22.5123239 5.26983672-25.8253217 15.82902928-15.2593658-12.61758813-31.89041952 7.5090602-22.53415281 23.2976023z" fill="#e5e4e4"/></g></svg>